<svg xmlns="http://www.w3.org/2000/svg" viewBox="0 0 463 463"><path d="M423.5 316h-.5v-24.5a7.5 7.5 0 0 0-7.5-7.5H407v-54.396c0-13.989-9.395-26.444-22.847-30.289L359 192.129v-11.531c5.054-4.43 8-10.831 8-17.66V139h8.5c4.142 0 7.5-3.357 7.5-7.5s-3.358-7.5-7.5-7.5h-.5v-.5c0-23.639-17.36-43.295-40-46.902V75.5c0-4.143-3.358-7.5-7.5-7.5s-7.5 3.357-7.5 7.5v1.098c-22.64 3.607-40 23.263-40 46.902v.5h-.5c-4.142 0-7.5 3.357-7.5 7.5s3.358 7.5 7.5 7.5h8.5v23.937a23.44 23.44 0 0 0 8 17.659v11.532l-25.155 7.187C257.395 203.159 248 215.614 248 229.604V316h-9v-40.5a7.5 7.5 0 0 0-7.5-7.5H215v-38.396c0-13.989-9.395-26.444-22.847-30.289L167 192.129v-11.531c5.054-4.43 8-10.831 8-17.66V139h8.5c4.142 0 7.5-3.357 7.5-7.5s-3.358-7.5-7.5-7.5h-.5v-.5c0-23.639-17.36-43.295-40-46.902V75.5c0-4.143-3.358-7.5-7.5-7.5s-7.5 3.357-7.5 7.5v1.098c-22.64 3.607-40 23.263-40 46.902v.5h-.5c-4.142 0-7.5 3.357-7.5 7.5s3.358 7.5 7.5 7.5H96v23.937a23.44 23.44 0 0 0 8 17.659v11.532l-25.155 7.187C65.395 203.159 56 215.614 56 229.604V316H39.5C17.72 316 0 333.72 0 355.5S17.72 395 39.5 395h384c21.78 0 39.5-17.72 39.5-39.5S445.28 316 423.5 316zm-15.5 0h-81v-17h81v17zm-113 0v-72.5a.5.5 0 0 1 .5-.5h64a.5.5 0 0 1 .5.5V284h-40.5a7.5 7.5 0 0 0-7.5 7.5V316h-17zm16.312-124.945A23.43 23.43 0 0 0 324.347 195h6.312c4.654 0 9.162-1.365 13.037-3.947l.306-.204v6.955c0 .072-.002.145 0 .216v1.983c-1.424 1.289-6.962 3.997-16.5 3.997s-15.076-2.708-16.5-3.997v-9.156l.31.208zM303 228v-15.215c5.588 3.898 14.175 6.215 24.5 6.215s18.912-2.317 24.5-6.215V228h-49zm89 1.604V284h-17v-40.5c0-5.827-3.235-10.908-8-13.555v-19.931l13.033 3.723c7.046 2.014 11.967 8.538 11.967 15.867zM360 123.5v.5h-25V91.883c14.315 3.396 25 16.278 25 31.617zm-65 0c0-15.339 10.685-28.221 25-31.617V124h-25v-.5zm57 15.5v23.938a8.483 8.483 0 0 1-3.785 7.072l-12.841 8.562a8.474 8.474 0 0 1-4.716 1.429h-6.312a8.472 8.472 0 0 1-4.715-1.427l-12.846-8.563a8.483 8.483 0 0 1-3.786-7.073V139H352zm-89 90.604c0-7.328 4.921-13.853 11.967-15.866L288 210.013v19.932c-4.765 2.647-8 7.728-8 13.555V316h-17v-86.396zM224 316h-81v-33h81v33zm-121 0v-72.5a.5.5 0 0 1 .5-.5h64a.5.5 0 0 1 .5.5V268h-32.5a7.5 7.5 0 0 0-7.5 7.5V316h-25zm16.312-124.945A23.43 23.43 0 0 0 132.347 195h6.312c4.654 0 9.162-1.365 13.037-3.947l.306-.204v6.955c0 .072-.002.145 0 .216v1.983c-1.424 1.289-6.962 3.997-16.5 3.997s-15.076-2.708-16.5-3.997v-9.156l.31.208zM111 228v-15.215c5.588 3.898 14.175 6.215 24.5 6.215s18.912-2.317 24.5-6.215V228h-49zm89 1.604V268h-17v-24.5c0-5.827-3.235-10.908-8-13.555v-19.931l13.033 3.723c7.046 2.014 11.967 8.538 11.967 15.867zM168 123.5v.5h-25V91.883c14.315 3.396 25 16.278 25 31.617zm-65 0c0-15.339 10.685-28.221 25-31.617V124h-25v-.5zm57 15.5v23.938a8.483 8.483 0 0 1-3.785 7.072l-12.841 8.562a8.474 8.474 0 0 1-4.716 1.429h-6.312a8.472 8.472 0 0 1-4.715-1.427l-12.846-8.563a8.483 8.483 0 0 1-3.786-7.073V139H160zm-89 90.604c0-7.328 4.921-13.853 11.967-15.866L96 210.013v19.932c-4.765 2.647-8 7.728-8 13.555V316H71v-86.396zM423.5 380h-384C25.991 380 15 369.01 15 355.5S25.991 331 39.5 331h384c13.509 0 24.5 10.99 24.5 24.5S437.009 380 423.5 380z" fill="#ffffff"/><path d="M231.5 341c-7.995 0-14.5 6.505-14.5 14.5s6.505 14.5 14.5 14.5 14.5-6.505 14.5-14.5-6.505-14.5-14.5-14.5zM183.5 341c-7.995 0-14.5 6.505-14.5 14.5s6.505 14.5 14.5 14.5 14.5-6.505 14.5-14.5-6.505-14.5-14.5-14.5zM135.5 341c-7.995 0-14.5 6.505-14.5 14.5s6.505 14.5 14.5 14.5 14.5-6.505 14.5-14.5-6.505-14.5-14.5-14.5zM39.5 341c-7.995 0-14.5 6.505-14.5 14.5S31.505 370 39.5 370 54 363.495 54 355.5 47.495 341 39.5 341zM87.5 341c-7.995 0-14.5 6.505-14.5 14.5S79.505 370 87.5 370s14.5-6.505 14.5-14.5S95.495 341 87.5 341zM423.5 341c-7.995 0-14.5 6.505-14.5 14.5s6.505 14.5 14.5 14.5 14.5-6.505 14.5-14.5-6.505-14.5-14.5-14.5zM375.5 341c-7.995 0-14.5 6.505-14.5 14.5s6.505 14.5 14.5 14.5 14.5-6.505 14.5-14.5-6.505-14.5-14.5-14.5zM279.5 341c-7.995 0-14.5 6.505-14.5 14.5s6.505 14.5 14.5 14.5 14.5-6.505 14.5-14.5-6.505-14.5-14.5-14.5zM327.5 341c-7.995 0-14.5 6.505-14.5 14.5s6.505 14.5 14.5 14.5 14.5-6.505 14.5-14.5-6.505-14.5-14.5-14.5z" fill="#ffffff"/></svg>