<svg xmlns="http://www.w3.org/2000/svg" viewBox="0 0 424.96 424.96"><path d="M294.912 350.72l-2.56 2.56c-1.024 1.024-1.024 2.56 0 3.584.512.512 1.536.512 2.048.512h1.536c.512-1.024 1.536-2.048 2.56-3.072s1.024-2.56 0-3.584-2.56-1.024-3.584 0zM316.416 327.68c-1.024-1.024-2.56-.512-3.584.512-3.072 4.608-6.144 8.704-9.216 12.8-.512 1.024-.512 2.56.512 3.584.512.512 1.024.512 1.536.512s1.536-.512 2.048-1.024c3.072-4.096 6.144-8.192 9.216-12.8 1.024-1.024.512-3.072-.512-3.584zM313.344 297.472h1.024c1.024 0 2.048-.512 2.048-1.024 4.096-10.24 6.656-20.992 8.192-31.744.512-1.536-.512-3.072-2.048-3.072-1.536-.512-3.072.512-3.072 2.048-1.536 10.752-4.096 20.992-7.68 30.72-.512 1.024 0 2.56 1.536 3.072zM183.808 145.408c-53.76 0-97.28 44.032-97.28 98.304s43.52 98.304 97.28 98.304 97.28-44.032 97.28-98.304-43.52-98.304-97.28-98.304zm0 185.856c-48.128 0-87.04-39.424-87.04-88.064s38.912-88.064 87.04-88.064 87.04 39.424 87.04 88.064-38.912 88.064-87.04 88.064z" fill="#ffffff"/><path d="M183.808 221.184c-12.288 0-22.528 10.24-22.528 22.528 0 12.288 10.24 22.528 22.528 22.528s22.528-10.24 22.528-22.528c0-12.288-10.24-22.528-22.528-22.528zm0 35.328c-7.168 0-12.8-6.144-12.8-13.312s5.632-13.312 12.8-13.312 12.8 6.144 12.8 13.312-5.632 13.312-12.8 13.312zM223.232 262.656c-3.584-2.56-8.192-1.536-10.752 2.048-2.56 3.584-2.048 8.192 1.536 10.752 1.536 1.024 3.072 1.536 4.608 1.536 2.56 0 4.608-1.024 6.144-3.072l.512-.512c2.048-3.584 1.536-8.192-2.048-10.752zM171.008 209.408c.512 0 1.536-.512 2.56 0 4.096-1.536 6.144-5.632 5.12-9.728-1.536-4.096-5.632-6.144-9.728-5.12h-.512c-4.096 1.536-6.144 5.632-4.608 9.728 1.024 3.072 4.096 5.12 7.168 5.12zM172.544 277.504h-.512c-4.096-1.024-8.192 1.024-9.728 5.12-1.024 4.096 1.024 8.192 5.12 9.728h.512c1.024.512 1.536.512 2.56.512 3.584 0 6.144-2.048 6.656-5.632 1.536-4.096-.512-8.192-4.608-9.728zM225.28 212.992c-2.56-3.584-7.168-4.096-10.752-1.536-3.072 2.56-4.096 7.168-1.536 10.752 1.024 2.56 3.584 3.584 6.144 3.584 1.536 0 3.072-.512 4.608-1.536 3.584-2.56 4.608-7.168 2.048-10.752l-.512-.512zM140.8 235.008c-4.096 0-7.68 3.584-7.68 7.68v1.024c0 4.096 3.584 7.68 7.68 7.68s7.68-3.584 7.68-8.192v-.512c0-4.096-3.584-7.68-7.68-7.68z" fill="#ffffff"/><path d="M183.808 171.008c-39.424 0-71.168 32.256-71.168 72.704 0 39.936 31.744 72.704 71.168 72.704s71.168-32.256 71.168-72.704c.512-40.448-31.744-72.704-71.168-72.704zm0 140.288c-36.352 0-66.048-30.208-66.048-67.584 0-37.376 29.696-67.584 66.048-67.584s66.048 30.208 66.048 67.584-29.696 67.584-66.048 67.584zM173.568 375.296c-2.56-1.024-5.632-.512-7.168 2.048v.512c-1.024 2.56-.512 5.632 2.048 7.168 1.024.512 1.536.512 2.56.512 2.048 0 3.584-1.024 4.608-2.56v-.512c1.024-2.56.512-5.632-2.048-7.168zM165.888 389.12c-2.56-1.024-5.632-.512-7.168 2.048v.512c-1.024 2.56-.512 5.632 2.048 7.168 1.024.512 1.536.512 2.56.512 1.536 0 3.584-1.024 4.608-2.56v-.512c1.024-2.56.512-5.632-2.048-7.168zM181.76 361.984c-2.56-1.024-5.632-.512-7.168 2.048v.512c-1.536 2.56-.512 5.12 2.048 6.656 1.024.512 1.536.512 2.56.512 1.536 0 3.584-1.024 4.608-2.56 1.024-2.56.512-5.632-2.048-7.168zM61.44 330.752h-.512c-2.56.512-4.096 3.584-3.584 6.144 1.024 2.048 3.072 3.584 5.12 3.584H64c2.56-.512 4.096-3.584 3.584-6.144S64 330.24 61.44 330.752zM77.312 326.656H76.8c-3.072.512-4.096 3.584-3.584 6.144.512 2.048 3.072 3.584 5.12 3.584h1.536c2.56-.512 4.096-3.584 3.584-6.144s-3.584-4.608-6.144-3.584zM92.16 322.56h-.512c-2.56.512-4.096 3.584-3.584 6.144 1.024 2.048 3.072 3.584 5.12 3.584h1.536c2.56-.512 4.096-3.584 3.584-6.144s-3.584-4.096-6.144-3.584zM60.928 243.712c1.536 0 3.584-1.024 4.608-2.56 1.024-2.56.512-5.632-2.048-7.168h-.512c-2.56-1.536-5.12-.512-6.656 2.048-1.536 2.56-.512 5.632 2.048 7.168 1.024.512 1.536.512 2.56.512zM35.84 218.112h-.512c-2.56-1.024-5.632-.512-7.168 2.048-1.024 2.56-.512 5.632 2.048 7.168h.512c1.024.512 1.536.512 2.56.512 1.536 0 3.584-.512 4.608-2.56 1.024-2.56.512-5.632-2.048-7.168zM49.664 226.304h-.512c-2.56-1.536-5.12-.512-6.656 2.048s-.512 5.632 2.048 7.168c1.024.512 1.536.512 2.56.512 1.536 0 3.584-1.024 4.608-2.56 1.024-2.56.512-5.632-2.048-7.168zM270.848 345.6c2.56-.512 4.096-3.584 3.584-6.144v-.512c-.512-2.56-3.584-4.096-6.144-3.584s-4.096 3.584-3.584 6.144v.512c1.024 2.048 3.072 3.584 5.12 3.584h1.024zM278.528 354.304c-.512-2.56-3.584-4.096-6.144-3.584s-4.096 3.584-3.584 6.144v.512c1.024 2.048 3.072 3.584 5.12 3.584h1.024c2.56-.512 4.096-3.584 3.584-6.144v-.512zM266.24 330.24c2.56-.512 4.096-3.584 3.584-6.144v-.512c-.512-2.56-3.584-4.096-6.144-3.584s-4.096 3.584-3.584 6.144v.512c1.024 2.048 3.072 3.584 5.12 3.584h1.024zM94.208 132.608c-2.56.512-4.096 3.584-3.584 6.144v.512c1.024 2.048 3.072 3.584 5.12 3.584h1.024c2.56-.512 4.096-3.584 3.584-6.144v-.512c-.512-2.56-3.584-4.096-6.144-3.584zM86.528 123.904c1.024 2.048 3.072 3.584 5.12 3.584h1.024c2.56-.512 4.096-3.584 3.584-6.144v-.512c-.512-2.56-3.584-4.096-6.144-3.584s-4.096 3.584-3.584 6.144v.512zM98.304 147.968c-2.56.512-4.096 3.584-3.584 6.144v.512c1.024 2.048 3.072 3.584 5.12 3.584h1.024c2.56-.512 4.096-3.584 3.584-6.144v-.512c-.512-2.56-3.584-4.096-6.144-3.584zM356.352 218.624c-.512-1.024-1.536-2.048-3.072-1.536-1.024.512-2.048 1.536-1.536 3.072s.512 2.56 1.024 3.584c.512 1.536 1.536 2.048 2.56 2.048.512 0 .512 0 0-.512 1.536-.512 2.56-1.536 2.048-3.072-.512-1.024-.512-2.56-1.024-3.584zM352.256 214.016c1.024-.512 2.048-1.536 1.536-3.072-1.024-3.072-2.048-5.632-3.072-8.704-.512-1.536-1.536-2.048-3.072-1.536s-2.048 1.536-1.536 3.072c1.024 2.56 2.048 5.12 3.072 8.192.512 1.024 1.536 1.536 2.56 1.536.512 0 .512 0 .512.512zM207.872 65.536c-3.072-1.024-6.656-2.048-10.24-3.072-1.536 0-3.072.512-3.072 2.048s.512 2.56 2.048 3.072c3.584 1.024 7.168 2.048 10.24 3.072h.512c1.024 0 2.048-.512 2.048-2.048.512-1.024 0-2.56-1.536-3.072z" fill="#ffffff"/><path d="M415.232 243.2H403l-1.08-14.848c-.705-13.387-5.046-26.289-12.188-37.539l-2.147-14.173c-2.048-14.336-8.192-27.648-17.408-38.912l-20.992-25.088a4.104 4.104 0 0 0-.278-.327l2.326-4.281c3.072-6.144 2.048-13.824-2.56-18.432l-17.92-17.92c-5.12-4.608-12.288-5.632-18.432-2.56l-3.852 2.092-24.82-20.524c-11.264-9.216-24.576-15.36-38.912-17.92l-16.896-2.56a5.6 5.6 0 0 0-.474-.055c-10.599-6.064-22.518-9.723-34.854-10.697l-13.824-1.005V5.12c0-3.072-2.048-5.12-5.12-5.12s-5.12 2.048-5.12 5.12v12.586l-32.256-2.346h-1.024c-3.584 0-6.656 2.048-8.704 5.12-1.536 3.072-1.536 7.168 0 10.24l19.266 34.878C63.503 83.555 4.608 157.484 4.608 243.2c0 100.352 80.384 181.76 179.2 181.76 87.196 0 160.158-61.806 175.7-147.483l30.636 16.923c1.536 1.024 3.584 1.536 5.12 1.536 3.072 0 5.632-1.536 8.192-3.584 2.048-2.048 2.56-4.608 2.56-7.68l-2.271-31.232h12c2.56 0 4.608-2.048 4.608-5.12-.001-3.072-2.049-5.12-5.121-5.12zm-23.552-13.312l.968 13.312h-11.734l9.652-21.008a76.186 76.186 0 0 1 1.114 7.696zm-29.184-85.504c7.631 9.062 12.594 19.902 14.893 31.277l-6.189-6.189c-2.048-2.56-5.632-3.584-8.704-3.072l-18.944 3.072-1.024-1.536a216.55 216.55 0 0 0-12.52-20.832l13.685-25.192 18.803 22.472zm-45.568-66.56c2.048-1.024 4.608-.512 6.144 1.024l17.92 17.92c1.536 1.536 2.048 4.096 1.024 6.144l-18.849 34.7c-11.632-15.238-25.283-28.85-40.658-40.427l34.419-19.361zM276.48 58.368l22.057 18.239-25.499 13.851a207.556 207.556 0 0 0-19.597-11.611l-1.536-.512 2.56-19.456c.512-3.072-1.024-6.656-3.072-8.704l-6.825-6.824c11.606 2.242 22.681 7.244 31.912 15.017zM192 29.696c2.089.19 4.163.467 6.216.829l-19.528 8.592v-10.38l13.312.959zm-23.444 13.439c-2.861.304-5.686-.929-7.276-3.711l-7.022-12.448 14.19 1.023v13.985c0 .403.039.786.108 1.151zm15.252 371.585c-92.672 0-168.448-76.8-168.96-171.52 0-82.223 57.361-152.36 136.165-168.038l5.147 9.318c1.536 2.56 3.072 4.608 5.12 6.656l19.456 19.456c7.168 7.68 15.872 13.312 25.6 17.408l15.36 6.656c29.184 12.288 52.224 35.328 64.512 64.512l6.656 15.36c4.096 9.728 10.24 18.432 17.408 25.6l19.456 19.456c1.946 1.946 3.905 3.428 6.29 4.888a2.133 2.133 0 0 0-.146.744c-2.048 16.384-6.656 32.768-14.336 47.616-.512 1.536 0 3.072 1.024 3.584 0 .512.512.512 1.024.512s1.536-.512 2.56-1.536c7.541-15.082 12.606-31.153 14.726-48.21l9.493 5.244c-14.142 82.379-83.799 142.294-166.555 142.294zm158.208-158.208c-1.536-1.024-3.072-2.048-4.608-3.584l-19.456-19.456a73.439 73.439 0 0 1-15.36-22.528l-6.656-15.36c-13.824-31.744-38.4-56.832-70.144-70.144l-15.36-6.656c-8.704-3.584-15.872-8.704-22.528-15.36l-19.456-19.456c-1.536-1.536-2.56-3.072-3.584-4.608L135.168 25.6l12.781.921 8.723 15.463c2.56 4.096 6.656 6.656 11.264 6.656 2.048 0 3.584 0 5.632-1.024l33.194-15.048a72.205 72.205 0 0 1 30.294 18.12l7.168 7.168-2.81 21.077c-5.086-2.461-10.239-4.722-15.622-6.741-1.024-.512-2.56 0-3.072 1.536-.512 1.024 0 2.56 1.536 3.072 6.059 2.272 11.835 4.547 17.334 7.233.458.811 1.174 1.509 2.122 1.983l4.608 2.56c36.352 19.456 65.536 48.64 84.992 84.992l.828 1.655c.001.325.061.633.196.905 3.072 5.632 5.632 11.264 8.192 17.408.512 1.024 1.536 1.536 2.56 1.536h.512c1.536-1.024 2.048-2.048 1.536-3.584-1.473-3.536-2.959-7.059-4.529-10.497l20.913-3.327 7.168 7.168c8.381 8.032 14.375 18.209 17.83 29.229l-14.265 31.047a4.858 4.858 0 0 0-.824 1.794l-.181.394c-3.072 6.144-.512 13.312 5.12 16.384l16.427 9.035.981 13.493-53.76-29.696zm52.376 10.667l-13.464-7.595c-2.454-1.402-3.706-3.765-3.76-6.265a6.17 6.17 0 0 0 1.2.121h15.025l.999 13.739z" fill="#ffffff"/></svg>