<svg xmlns="http://www.w3.org/2000/svg" viewBox="0 0 490 490"><path d="M364.1 251.3c-7-7-18.4-7-25.5 0L263 327.1V130.9c0-9.9-8.1-18-18-18s-18 8.1-18 18v196.2l-75.8-75.8c-7-7-18.4-7-25.5 0-7 7-7 18.4 0 25.5l106.5 106.5c3.5 3.5 8.1 5.3 12.7 5.3s9.2-1.8 12.7-5.3l106.5-106.5c7-7 7-18.4 0-25.5zM245 0c-9.9 0-18 8.1-18 18v41.2c0 9.9 8.1 18 18 18s18-8.1 18-18V18c0-9.9-8.1-18-18-18z" fill="#ffffff"/><path d="M438.2 334.9c-9.9 0-18 8.1-18 18V454H69.8V352.9c0-9.9-8.1-18-18-18s-18 8.1-18 18V472c0 9.9 8.1 18 18 18h386.3c10 0 18.1-8.1 18.1-18V352.9c0-9.9-8.1-18-18-18z" fill="#ffffff"/></svg>