<svg xmlns="http://www.w3.org/2000/svg" viewBox="0 0 295.24 295.24"><path d="M287.214 97.125c-4.157-8.19-6.262-17.6-6.262-27.971V42.438c0-2.367 1.205-4.514 2.99-5.338 8.638-3.99 13.1-13.59 10.605-22.838C292.271 5.862 284.29 0 275.138 0H99.967c-3.495 0-6.524 1.929-8.171 4.762H71.429v4.762H60.462L42.857 21.263v7.31H4.762v9.524h38.095v7.31l17.605 11.738h10.967v4.762h19.386c.557 2.09 1.8 3.976 3.586 5.276l47.91 34.843a14.148 14.148 0 0 0 8.405 2.738h35v1.971l9.524 9.524v12.314c0 7.876 6.41 14.286 14.286 14.286h9.524v19.324c0 4.262-2.419 8.314-6.633 11.124-6.867 4.567-9.481 13.157-6.362 20.876 2.562 6.324 9.119 10.581 16.314 10.581h20.49v28.571h9.524v40.476c0 6.567-5.338 11.905-11.905 11.905H21.429c-6.567 0-11.905-5.338-11.905-11.905 0-6.567 5.338-11.905 11.905-11.905h166.667c11.814 0 21.429-9.614 21.429-21.429 0-11.814-9.614-21.429-21.429-21.429H56.467c-2.129-8.195-9.519-14.286-18.371-14.286h-23.81v4.762H0v9.524h14.286v9.524H0v9.524h14.286v4.762h23.81c8.852 0 16.243-6.09 18.371-14.286h131.629c6.567 0 11.905 5.338 11.905 11.905s-5.338 11.905-11.905 11.905H21.429C9.614 252.381 0 261.995 0 273.81c0 11.814 9.614 21.429 21.429 21.429h219.048c11.814 0 21.429-9.614 21.429-21.429v-40.476h9.524v-28.571h.062c13.095 0 23.748-10.662 23.748-23.767V128.4c-.002-10.271-2.697-20.795-8.026-31.275zM71.429 28.571h-9.524v9.524h9.524v9.524h-8.081l-10.967-7.31V26.357l10.967-7.31h8.081v9.524zm19.047 23.81h-9.524V14.286h9.524v38.095zM38.095 233.333H23.81v-19.048h14.286c5.252 0 9.524 4.271 9.524 9.524 0 5.254-4.272 9.524-9.525 9.524zm180.953-99.999h-9.524v-.001a4.763 4.763 0 0 1-4.762-4.762v-16.257l-7.552-7.552h17.076a4.763 4.763 0 0 1 4.762 4.762v23.81zm42.857 90.476h-9.524v-19.048h9.524v19.048zm9.585-28.572H222.367c-3.357 0-6.362-1.862-7.481-4.629-1.41-3.486-.257-7.343 2.81-9.381 6.91-4.605 10.876-11.548 10.876-19.048v-52.657c0-7.876-6.41-14.286-14.286-14.286h-63.571a4.751 4.751 0 0 1-2.805-.91L100 59.482V9.524h175.138c4.786 0 9.081 3.043 10.214 7.229 1.286 4.743-.99 9.667-5.4 11.7-5.181 2.395-8.524 7.881-8.524 13.986v26.714c0 11.881 2.457 22.738 7.295 32.276v.005c4.638 9.133 6.99 18.205 6.99 26.967v52.594h.001c0 7.852-6.381 14.243-14.224 14.243z" fill="#ffffff"/><path d="M147.619 76.19h19.048v9.524h-19.048zM147.619 61.905h19.048v9.524h-19.048zM147.619 47.62h19.048v9.524h-19.048zM147.619 33.333h19.048v9.524h-19.048zM257.143 152.381c-7.876 0-14.286 6.41-14.286 14.286s6.41 14.286 14.286 14.286 14.286-6.41 14.286-14.286c0-7.877-6.41-14.286-14.286-14.286zm0 19.049a4.763 4.763 0 0 1-4.762-4.762 4.763 4.763 0 0 1 4.762-4.762 4.763 4.763 0 0 1 4.762 4.762 4.765 4.765 0 0 1-4.762 4.762zM14.286 190.477h95.238c7.876 0 14.286-6.41 14.286-14.286v-61.905c0-7.876-6.41-14.286-14.286-14.286H14.286C6.41 100 0 106.41 0 114.286v61.905c0 7.877 6.41 14.286 14.286 14.286zm-4.762-76.191a4.763 4.763 0 0 1 4.762-4.762h95.238a4.763 4.763 0 0 1 4.762 4.762v61.905a4.763 4.763 0 0 1-4.762 4.762H14.286a4.763 4.763 0 0 1-4.762-4.762v-61.905z" fill="#ffffff"/><path d="M28.571 152.381h9.524v-23.81h4.762v-9.523H23.81v9.523h4.761zM57.143 152.381h9.524v-23.81h4.762v-9.523H52.381v9.523h4.762zM85.714 152.381h9.524v-23.81H100v-9.523H80.952v9.523h4.762zM19.048 161.905h85.714v9.524H19.048z" fill="#ffffff"/></svg>