<svg xmlns="http://www.w3.org/2000/svg" viewBox="0 0 511 511"><path d="M510.615 397.128l-24-72A7.5 7.5 0 0 0 479.5 320h-24.564l23.37-33.107c11.565-16.384 11.565-38.401 0-54.785l-31.717-44.933a7.5 7.5 0 0 0-6.127-3.175H367v-41h8.5a7.5 7.5 0 0 0 7.276-5.681l8-32c.011-.046.017-.092.027-.138.026-.112.046-.226.067-.339a7.759 7.759 0 0 0 .102-.781c.014-.177.02-.353.021-.529 0-.088.001-.176-.002-.264a7.264 7.264 0 0 0-.044-.592c-.008-.069-.012-.138-.022-.207a7.51 7.51 0 0 0-.142-.747c-.003-.013-.004-.027-.008-.04l-.004-.016-.015-.059-7.981-31.926A7.498 7.498 0 0 0 375.5 64h-64a7.5 7.5 0 0 0-7.276 5.681l-7.981 31.926-.015.059-.004.016c-.003.013-.004.027-.008.041-.06.245-.107.494-.142.746-.01.07-.015.139-.022.209a7.24 7.24 0 0 0-.044.591c-.003.088-.002.176-.002.264a7.82 7.82 0 0 0 .05.836c.019.158.044.316.073.474.021.114.041.227.067.339.011.046.016.092.027.138l8 32a7.499 7.499 0 0 0 7.276 5.681h8.5v41H199v-73h32.5a7.499 7.499 0 0 0 6-12l-24-32a7.5 7.5 0 0 0-6-3h-184C10.542 64 0 74.542 0 87.5v280C0 380.458 10.542 391 23.5 391h20.063a104.03 104.03 0 0 0 18.157 25.007c.184.234.379.463.595.678.216.216.444.411.678.595C81.681 435.649 107.288 447 135.5 447s53.819-11.351 72.507-29.72c.234-.184.462-.379.678-.595.216-.216.411-.444.595-.678A104.049 104.049 0 0 0 227.437 391h21.339a47.538 47.538 0 0 0-.777 8.5c0 26.191 21.309 47.5 47.5 47.5s47.5-21.309 47.5-47.5c0-2.902-.276-5.74-.777-8.5h10.554a47.538 47.538 0 0 0-.777 8.5c0 26.191 21.309 47.5 47.5 47.5s47.5-21.309 47.5-47.5c0-2.902-.276-5.74-.777-8.5H456v8.5a7.5 7.5 0 0 0 7.5 7.5h40a7.498 7.498 0 0 0 7.115-9.872zM236.307 320c-4.385-18.815-13.919-35.672-27.027-49.007a7.42 7.42 0 0 0-.595-.678 7.557 7.557 0 0 0-.678-.595 104.27 104.27 0 0 0-9.007-7.893V199h225v121H236.307zm-33.182 80.519L153.606 351h70.073c-1.583 18.777-9.053 35.9-20.554 49.519zM47.321 351h70.073l-49.519 49.519C56.374 386.9 48.904 369.777 47.321 351zm145.198-75.125L143 325.394v-70.073c18.776 1.583 35.9 9.053 49.519 20.554zM167.5 184a.5.5 0 0 1-.5-.5v-40a.5.5 0 0 1 .5-.5H184v41h-16.5zm56.179 152h-70.073l49.519-49.519c11.501 13.619 18.971 30.743 20.554 49.519zM128 325.394l-49.519-49.519c13.619-11.501 30.742-18.97 49.519-20.554v70.073zm-60.125-38.913L117.394 336H47.321c1.583-18.776 9.053-35.9 20.554-49.519zM128 361.607v70.073c-18.776-1.583-35.9-9.053-49.519-20.554L128 361.607zm15 0l49.519 49.519C178.9 422.627 161.777 430.096 143 431.68v-70.073zm323.051-120.849c7.914 11.21 7.914 26.274 0 37.484L439 316.565v-114.13l27.051 38.323zM317.356 79h52.288l4.25 17h-60.788l4.25-17zm-4.25 32h60.789l-4.25 17h-52.288l-4.251-17zM335 143h17v41h-17v-41zm-151-15h-16.5c-8.547 0-15.5 6.953-15.5 15.5v40c0 8.547 6.953 15.5 15.5 15.5H184v53.091C169.524 244.379 153.015 240 135.5 240c-28.212 0-53.819 11.351-72.507 29.72a7.557 7.557 0 0 0-.678.595 7.557 7.557 0 0 0-.595.678C48.612 284.328 39.078 301.185 34.693 320H15V111h169v17zM15 87.5c0-4.687 3.813-8.5 8.5-8.5h180.25l12.75 17H15v-8.5zM23.5 376c-4.687 0-8.5-3.813-8.5-8.5V335h17.351a104.387 104.387 0 0 0-.351 8.5c0 11.349 1.842 22.274 5.232 32.5H23.5zm303.617 16H303v-24.117c11.906 2.825 21.292 12.211 24.117 24.117zM288 392h-24.117c2.824-11.906 12.211-21.292 24.117-24.117V392zm-24.117 15H288v24.117c-11.906-2.824-21.292-12.211-24.117-24.117zM303 431.117V407h24.117c-2.825 11.906-12.211 21.293-24.117 24.117zM432 399.5a32.297 32.297 0 0 1-4.846 17.048L410.106 399.5l17.048-17.048A32.297 32.297 0 0 1 432 399.5zm-32.5-10.606l-17.048-17.048c4.96-3.069 10.799-4.846 17.048-4.846s12.088 1.777 17.048 4.846L399.5 388.894zm-27.654-6.442l17.048 17.048-17.048 17.048c-3.069-4.96-4.846-10.799-4.846-17.048s1.777-12.088 4.846-17.048zm10.606 44.702l17.048-17.048 17.048 17.048c-4.96 3.069-10.799 4.846-17.048 4.846s-12.088-1.777-17.048-4.846zM440.753 376c-8.19-14.321-23.608-24-41.253-24s-33.063 9.679-41.253 24h-21.493c-8.19-14.321-23.608-24-41.253-24s-33.063 9.679-41.253 24h-20.479a103.074 103.074 0 0 0 5.232-32.5c0-2.862-.122-5.696-.351-8.5H456v41h-15.247zM471 392v-57h3.094l19 57H471z" fill="#1e252d" /><path d="M40.5 199h86c4.687 0 8.5-3.813 8.5-8.5v-54c0-4.687-3.813-8.5-8.5-8.5h-86c-4.687 0-8.5 3.813-8.5 8.5v54c0 4.687 3.813 8.5 8.5 8.5zm6.5-56h73v41H47v-41zM399.5 216h-16a7.5 7.5 0 0 0 0 15h16a7.5 7.5 0 0 0 0-15zM351.5 216h-80a7.5 7.5 0 0 0 0 15h80a7.5 7.5 0 0 0 0-15z" fill="#1e252d" /></svg>