<svg xmlns="http://www.w3.org/2000/svg" viewBox="0 0 512.005 512.005"><path d="M509.504 305.5l-59.383-59.383c7.34-4.486 12.082-10.723 13.167-17.943 1.23-8.168-2.213-16.072-9.552-22.395l23.659-70.969c.872-2.606.427-5.468-1.179-7.698s-4.187-3.546-6.929-3.546h-25.633a8.553 8.553 0 0 0-7.246 4.016L403.461 180.3l-29.589-44.388a8.583 8.583 0 0 0-7.117-3.802h-25.633c-2.683 0-5.203 1.256-6.818 3.401s-2.136 4.913-1.393 7.493l13.97 48.916H235.326l45.08-90.168a8.552 8.552 0 0 0-.376-8.314 8.552 8.552 0 0 0-7.263-4.05H238.59a8.524 8.524 0 0 0-6.041 2.503L132.436 191.997c-57.768 1.521-78.702 14.577-104.437 44.499C3.049 250.961-2.419 270.545.862 284.207c3.879 16.089 19.549 26.556 41.209 27.333h53.838c-1.598 3.896-2.572 8.211-2.572 12.816 0 16.491 11.501 29.905 25.633 29.905 32.503 0 66.868-6.707 79.915-21.079l137.632 88.083a8.548 8.548 0 0 0 4.605 1.35h59.81a8.545 8.545 0 0 0 5.502-15.081L278.227 299.579c55.316-9.279 97.362-21.711 120.748-29.606l82.529 57.136a8.568 8.568 0 0 0 8.689.624l17.089-8.544a8.549 8.549 0 0 0 4.614-6.271 8.566 8.566 0 0 0-2.392-7.418zm-61.117-164.845h9.048l-20.549 61.639c-7.844 2.068-17.9.487-24.744-3.64l36.245-57.999zm-86.204 8.544l28.478 42.721h-26.009l-12.21-42.721h9.741zm-120.056-42.722h16.815l-42.721 85.443h-59.537l85.443-85.443zM118.97 337.173c-4.554 0-8.544-5.99-8.544-12.816s3.99-12.816 8.544-12.816 8.544 5.99 8.544 12.816-3.999 12.816-8.544 12.816zm23.642-1.29a34.155 34.155 0 0 0 1.991-11.526c0-4.605-.974-8.92-2.572-12.816h23.035l19.105 12.227c-5.827 4.143-19.805 9.655-41.559 12.115zm234.908 69.645h-33.904L156.71 285.908h78.761l142.049 119.62zM260.95 285.019l-16.858-14.192a8.521 8.521 0 0 0-5.503-2.008H127.514a8.542 8.542 0 1 0-4.606 15.738l15.457 9.894H42.379c-13.355-.478-22.89-5.938-24.89-14.243-2.358-9.817 5.562-21.421 20.19-29.563a8.647 8.647 0 0 0 2.35-1.922c3.443-4.05 6.741-7.716 10.04-11.091l11.586 11.586a8.626 8.626 0 0 0 2.777 1.846 8.548 8.548 0 0 0 3.272.666h17.089a8.547 8.547 0 0 0 8.544-8.544 8.547 8.547 0 0 0-8.544-8.544H71.241l-8.271-8.271c15.653-11.261 35.425-16.678 73.088-17.362H397.42c8.066 7.186 17.302 8.544 29.145 8.544h17.089c2.99 2.452 3.059 5.904 2.734 8.083-.367 2.444-3.384 5.503-8.989 7.758l-4.793-4.793a8.518 8.518 0 0 0-7.451-2.384l-51.266 8.544a8.574 8.574 0 0 0-6.938 6.562 8.55 8.55 0 0 0 3.478 8.895l10.885 7.536c-26.445 8.28-67.953 19.379-120.364 27.265zm226.125 25.163L397.48 248.15l26.154-4.358 65.407 65.407-1.966.983z" fill="#1e252d" /><path d="M127.514 234.642h-8.544a8.547 8.547 0 0 0-8.544 8.544 8.547 8.547 0 0 0 8.544 8.544h8.544a8.547 8.547 0 0 0 8.544-8.544 8.547 8.547 0 0 0-8.544-8.544zM170.236 234.642h-8.544a8.547 8.547 0 0 0-8.544 8.544 8.547 8.547 0 0 0 8.544 8.544h8.544a8.547 8.547 0 0 0 8.544-8.544 8.547 8.547 0 0 0-8.544-8.544zM212.957 234.642h-8.544a8.547 8.547 0 0 0-8.544 8.544 8.547 8.547 0 0 0 8.544 8.544h8.544a8.547 8.547 0 0 0 8.544-8.544 8.547 8.547 0 0 0-8.544-8.544zM255.679 234.642h-8.544a8.547 8.547 0 0 0-8.544 8.544 8.547 8.547 0 0 0 8.544 8.544h8.544a8.547 8.547 0 0 0 8.544-8.544 8.547 8.547 0 0 0-8.544-8.544zM298.4 234.642h-8.544a8.547 8.547 0 0 0-8.544 8.544 8.547 8.547 0 0 0 8.544 8.544h8.544a8.547 8.547 0 0 0 8.544-8.544 8.547 8.547 0 0 0-8.544-8.544zM341.122 234.642h-8.544a8.547 8.547 0 0 0-8.544 8.544 8.547 8.547 0 0 0 8.544 8.544h8.544a8.547 8.547 0 0 0 8.544-8.544 8.547 8.547 0 0 0-8.544-8.544z"  fill="#1e252d" /></svg>