<svg xmlns="http://www.w3.org/2000/svg" viewBox="0 3.108 11.765 22.471">
<path fill="#000000" d="M3.136,11.14c0,0,0.886-1.142,0.313-2.728C2.874,6.827,1.535,6.225,1.535,6.225S0.533,7.586,1.093,9.131
  C1.652,10.677,3.136,11.14,3.136,11.14z M5.595,11.951c0,0,1.549-0.124,2.436-1.51C8.918,9.058,8.24,7.51,8.24,7.51
  S6.802,7.802,5.891,9.223C4.981,10.643,5.595,11.951,5.595,11.951z M5.752,13.781c-0.717,1.526,0.063,2.744,0.063,2.744
  s1.521-0.325,2.219-1.813c0.697-1.489-0.177-2.936-0.177-2.936S6.469,12.254,5.752,13.781z M9.253,15.011
  c0,0-1.337,0.606-1.906,2.192c-0.57,1.589,0.318,2.727,0.318,2.727s1.482-0.467,2.038-2.014
  C10.258,16.369,9.253,15.011,9.253,15.011z M10.367,23.363c0,0,1.286-0.875,1.373-2.516c0.086-1.642-1.269-2.652-1.269-2.652
  s-1.106,0.966-1.195,2.649C9.188,22.527,10.367,23.363,10.367,23.363z M5.111,8.084c0,0,1.371-0.458,1.772-2.095
  c0.403-1.638-0.376-2.882-0.376-2.882S4.92,3.684,4.527,5.281C4.135,6.877,5.111,8.084,5.111,8.084z M3.135,14.621
  c0,0,0.51-1.354-0.506-2.698c-1.017-1.346-2.473-1.527-2.473-1.527S-0.4,11.992,0.59,13.304C1.58,14.617,3.135,14.621,3.135,14.621z
   M4.271,18.191c0,0,0.194-1.432-1.093-2.518c-1.29-1.087-2.75-0.939-2.75-0.939s-0.188,1.681,1.067,2.739
  C2.754,18.531,4.271,18.191,4.271,18.191z M6.001,21.143c0,0-0.245-1.424-1.803-2.067c-1.559-0.646-2.905-0.063-2.905-0.063
  s0.33,1.658,1.849,2.288C4.659,21.927,6.001,21.143,6.001,21.143z M6.757,22.369c-1.624-0.454-2.892,0.284-2.892,0.284
  s0.525,1.606,2.107,2.05c1.584,0.442,2.821-0.496,2.821-0.496S8.381,22.823,6.757,22.369z"/><path fill="#000000" d="M11.764,24.967l-0.521,0.611C0.806,16.658,4.52,8.769,4.558,8.69l0.724,0.355
  C5.136,9.343,1.83,16.474,11.764,24.967z"/>
</svg>
