<svg xmlns="http://www.w3.org/2000/svg" viewBox="0 0 512 512">
		<path d="M0,0v512h512V0H0z M496.792,496.792H15.208V15.208h481.584V496.792z" fill="#ffffff"/>
		<rect x="50.693" y="446.099" width="15.208" height="15.208" fill="#ffffff"/>
		<rect x="50.693" y="139.021" width="15.208" height="14.623" fill="#ffffff"/>
		<rect x="50.693" y="95.151" width="15.208" height="14.623" fill="#ffffff"/>
		<rect x="50.693" y="182.88" width="15.208" height="14.623" fill="#ffffff"/>
	
		<rect x="50.693" y="402.229" width="15.208" height="14.623" fill="#ffffff"/>
	
		<rect x="50.693" y="226.75" width="15.208" height="14.623" fill="#ffffff"/>
	
		<rect x="50.693" y="358.359" width="15.208" height="14.623" fill="#ffffff"/>
	
		<rect x="50.693" y="270.62" width="15.208" height="14.623" fill="#ffffff"/>
	
		<rect x="50.693" y="314.49" width="15.208" height="14.623" fill="#ffffff"/>
	
		<rect x="50.693" y="50.693" width="15.208" height="15.208" fill="#ffffff"/>
	
		<rect x="270.62" y="50.693" width="14.623" height="15.208" fill="#ffffff"/>
	
		<rect x="314.49" y="50.693" width="14.624" height="15.208" fill="#ffffff"/>
	
		<rect x="358.359" y="50.693" width="14.623" height="15.208" fill="#ffffff"/>
	
		<rect x="402.229" y="50.693" width="14.623" height="15.208" fill="#ffffff"/>
	
		<rect x="139.021" y="50.693" width="14.623" height="15.208" fill="#ffffff"/>
	
		<rect x="182.88" y="50.693" width="14.624" height="15.208" fill="#ffffff"/>
	
		<rect x="95.151" y="50.693" width="14.623" height="15.208" fill="#ffffff"/>
	
		<rect x="226.75" y="50.693" width="14.623" height="15.208" fill="#ffffff"/>
	
		<rect x="446.099" y="50.693" width="15.208" height="15.208" fill="#ffffff"/>
	
		<rect x="446.099" y="226.75" width="15.208" height="14.623" fill="#ffffff"/>
	
		<rect x="446.099" y="182.88" width="15.208" height="14.623" fill="#ffffff"/>
	
		<rect x="446.099" y="270.62" width="15.208" height="14.623" fill="#ffffff"/>
	
		<rect x="446.099" y="95.151" width="15.208" height="14.623" fill="#ffffff"/>
	
		<rect x="446.099" y="139.021" width="15.208" height="14.623" fill="#ffffff"/>
	
		<rect x="446.099" y="314.49" width="15.208" height="14.623" fill="#ffffff"/>
	
		<rect x="446.099" y="358.359" width="15.208" height="14.623" fill="#ffffff"/>
	
		<rect x="446.099" y="402.229" width="15.208" height="14.623" fill="#ffffff"/>
	
		<rect x="446.099" y="446.099" width="15.208" height="15.208" fill="#ffffff"/>
	
		<rect x="226.75" y="446.099" width="14.623" height="15.208" fill="#ffffff"/>
	
		<rect x="270.62" y="446.099" width="14.623" height="15.208" fill="#ffffff"/>
	
		<rect x="182.88" y="446.099" width="14.624" height="15.208" fill="#ffffff"/>
	
		<rect x="139.021" y="446.099" width="14.623" height="15.208" fill="#ffffff"/>
	
		<rect x="314.49" y="446.099" width="14.624" height="15.208" fill="#ffffff"/>
	
		<rect x="358.359" y="446.099" width="14.623" height="15.208" fill="#ffffff"/>
	
		<rect x="402.229" y="446.099" width="14.623" height="15.208" fill="#ffffff"/>
	
		<rect x="95.151" y="446.099" width="14.623" height="15.208" fill="#ffffff"/>
	
		<path d="M370.705,187.894l-46.599-46.598L256,209.401l-68.106-68.106l-46.599,46.599L209.401,256l-68.106,68.106l46.599,46.598
			L256,302.598l68.106,68.106l46.599-46.598L302.599,256L370.705,187.894z M349.198,324.106l-25.092,25.092L256,281.092
			l-68.106,68.106l-25.092-25.092L230.908,256l-68.106-68.106l25.092-25.092L256,230.908l68.106-68.106l25.092,25.092L281.092,256
			L349.198,324.106z" fill="#ffffff"/>
</svg>
