<svg xmlns="http://www.w3.org/2000/svg" width="612.36" height="612.36" viewBox="0 0 612.36 612.36"><path d="M439.11 239.188c2.053 4.844-.199 10.466-5.044 12.519-4.844 2.053-10.466-.199-12.519-5.043a106.113 106.113 0 0 0-9.648-17.722 107.194 107.194 0 0 0-12.878-15.629l-.021.02c-4.805-4.804-10.048-9.15-15.63-12.898-5.62-3.808-11.542-7.057-17.643-9.648-4.844-2.033-7.116-7.635-5.083-12.479 2.033-4.844 7.635-7.117 12.479-5.083 7.454 3.17 14.491 6.997 20.95 11.363a124.158 124.158 0 0 1 18.479 15.21l-.021.02.021.02a123.991 123.991 0 0 1 15.189 18.419 125.486 125.486 0 0 1 11.369 20.931zm60.782 1.276c1.354 5.104-1.675 10.346-6.778 11.702-5.103 1.356-10.346-1.674-11.701-6.778a161.631 161.631 0 0 0-16.207-38.873c-7.036-12.14-15.748-23.443-25.836-33.55-10.105-10.107-21.409-18.818-33.55-25.855a160.112 160.112 0 0 0-38.873-16.187c-5.104-1.355-8.134-6.599-6.777-11.702 1.354-5.104 6.599-8.133 11.701-6.778 15.271 4.126 29.902 10.267 43.498 18.141a182.772 182.772 0 0 1 37.537 28.846 181.961 181.961 0 0 1 28.825 37.537 180.464 180.464 0 0 1 18.161 43.497z" fill="#fff"/><path d="M558.699 241.102c.997 5.183-2.372 10.207-7.556 11.204-5.183.997-10.206-2.372-11.203-7.555a217.33 217.33 0 0 0-21.669-60.383l-.259-.498c-10.088-18.699-22.945-36.002-38.235-51.292l-.04-.04c-15.409-15.39-32.893-28.367-51.771-38.474a218.69 218.69 0 0 0-60.403-21.669c-5.183-.997-8.552-6.04-7.555-11.203 1.017-5.183 6.04-8.552 11.203-7.555 23.005 4.565 45.133 12.599 65.726 23.603 20.593 11.044 39.591 25.138 56.275 41.803l.04.04a240.922 240.922 0 0 1 41.505 55.718l.299.539a236.058 236.058 0 0 1 23.643 65.762zm49.578 259.412c4.246 3.11 5.163 9.092 2.055 13.337-3.11 4.246-9.092 5.163-13.338 2.054L447.842 406.581l-9.669 9.668-15.449 15.45c-36.76 36.76-91.899 28.067-142.654-2.831-19.037-11.582-37.478-26.294-53.963-42.78-16.467-16.486-31.198-34.926-42.78-53.964-30.939-50.774-39.73-105.894-3.189-142.414l25.396-25.397L102.789 24.091 56.4 70.141l.02.02-.399.398C19.6 106.98 10.051 155.282 28.71 213.891c19.376 60.861 68.675 132.667 149.213 213.802l3.249 3.269.02-.02c5.503 5.502 10.027 9.986 13.556 13.396 78.205 75.832 147.718 122.28 206.686 140.321 56.794 17.383 103.681 7.974 138.866-27.231l.479-.458 1.137-1.137 12.279-12.678c3.668-3.77 9.729-3.849 13.496-.181 3.769 3.668 3.847 9.729.179 13.496l-12.278 12.678-.04.04-1.177 1.178-.538.598c-40.527 40.548-93.854 51.552-157.943 31.936-61.897-18.938-134.042-66.921-214.46-144.887a1175.358 1175.358 0 0 1-13.774-13.535l.02-.021-.02-.021-3.27-3.289C81.678 357.82 30.844 283.404 10.531 219.652-10.481 153.647.683 98.827 42.485 57.023l.399-.398.02.02.02-.02L97.188 2.761a9.326 9.326 0 0 1 1.077-.917c4.246-3.11 10.227-2.193 13.336 2.053L225.349 159.07c3.229 3.748 3.07 9.449-.479 12.998l-31.198 31.198c-29.064 29.065-20.572 75.394 5.961 118.932 10.725 17.622 24.479 34.826 40.029 50.375 15.549 15.549 32.753 29.304 50.355 40.009 43.537 26.514 89.886 34.887 119.17 5.603l15.45-15.449 15.449-15.449.02.02c3.271-3.269 8.532-3.768 12.38-.956l155.791 114.163z" fill="#fff"/><path d="M566.693 542.118c4.246 3.108 5.163 9.09 2.053 13.336-3.108 4.246-9.09 5.164-13.336 2.054l-38.953-28.525-38.951-28.548-38.953-28.547c-4.246-3.108-5.163-9.09-2.053-13.337 3.108-4.246 9.09-5.163 13.336-2.053l38.952 28.547 38.952 28.546 38.953 28.527zM54.625 56.744c-3.11-4.246-2.193-10.227 2.054-13.336 4.246-3.11 10.227-2.193 13.336 2.053l28.526 38.953 28.547 38.933 28.547 38.953c3.109 4.246 2.192 10.227-2.054 13.336s-10.227 2.193-13.336-2.053l-28.527-38.973-28.547-38.933-28.546-38.933z" fill="#fff"/></svg>