<svg xmlns="http://www.w3.org/2000/svg" viewBox="0 0 496 496"><path d="M8 360h416l24-40H8z" fill="#1e252d" /><path d="M471.616 447.168l-19.52 23.424C447.12 476.568 439.792 480 432 480s-15.112-3.432-20.096-9.416l-19.512-23.416C384.36 437.528 372.56 432 360 432s-24.36 5.528-32.384 15.168l-19.52 23.424C303.12 476.568 295.792 480 288 480s-15.112-3.432-20.096-9.416l-19.512-23.416C240.36 437.528 228.56 432 216 432s-24.36 5.528-32.384 15.168l-19.52 23.424C159.12 476.568 151.792 480 144 480s-15.112-3.432-20.096-9.416l-19.512-23.416C96.36 437.528 84.56 432 72 432s-24.36 5.528-32.384 15.168l-19.52 23.424A26.082 26.082 0 0 1 0 480v16c12.552 0 24.36-5.528 32.384-15.168l19.52-23.424C56.888 451.432 64.216 448 72 448s15.112 3.432 20.096 9.416l19.512 23.416C119.648 490.472 131.448 496 144 496s24.36-5.528 32.384-15.168l19.52-23.424C200.888 451.432 208.216 448 216 448s15.112 3.432 20.096 9.416l19.512 23.416C263.648 490.472 275.448 496 288 496s24.36-5.528 32.384-15.168l19.52-23.424C344.888 451.432 352.216 448 360 448s15.112 3.432 20.096 9.416l19.512 23.416C407.648 490.472 419.448 496 432 496s24.36-5.528 32.384-15.168l19.512-23.416a26.07 26.07 0 0 1 7.84-6.36l-7.496-14.144a42.161 42.161 0 0 0-12.624 10.256z" fill="#1e252d" /><path d="M471.616 391.168l-19.52 23.424C447.12 420.568 439.792 424 432 424s-15.112-3.432-20.096-9.416l-11.12-13.344 45.432-68.152 42.472-42.472c4.648-4.64 7.312-11.072 7.312-17.648C496 259.2 484.8 248 471.032 248H424l-2.344.312c-25.936 5.184-50.872 16.128-72.288 31.688H288c0-25.976-17.8-47.808-41.824-54.112L219.816 160H272v-32h-16v16h-16v-16h-16v16h-9.888L203.2 104H272V72h-16v16h-16V72h-16v16h-25.16l-6.208-22.76C197.152 60.872 200 54.776 200 48c0-10.416-6.712-19.216-16-22.528V0h-16v25.472c-9.288 3.312-16 12.112-16 22.528 0 7.064 3.128 13.36 8 17.76V88h-24V72h-16v16h-16V72H88v32h72v40h-24v-16h-16v16h-16v-16H88v32h72v16h-32c-13.232 0-24 10.768-24 24v24H88v56H40v32H0v42.424l31.216 46.824-11.12 13.344A26.082 26.082 0 0 1 0 424v16c12.552 0 24.36-5.528 32.384-15.168l19.52-23.424C56.888 395.432 64.216 392 72 392s15.112 3.432 20.096 9.416l19.512 23.416C119.648 434.472 131.448 440 144 440s24.36-5.528 32.384-15.168l19.52-23.424C200.888 395.432 208.216 392 216 392s15.112 3.432 20.096 9.416l19.512 23.416C263.648 434.472 275.448 440 288 440s24.36-5.528 32.384-15.168l19.52-23.424C344.888 395.432 352.216 392 360 392s15.112 3.432 20.096 9.416l19.512 23.416C407.648 434.472 419.448 440 432 440s24.36-5.528 32.384-15.168l19.512-23.416a26.07 26.07 0 0 1 7.84-6.36l-7.496-14.144a42.161 42.161 0 0 0-12.624 10.256zM272 280h-16v-24h-72v24h-8v-40h56c22.056 0 40 17.944 40 40zm-32 0h-40v-8h40v8zM176 40c4.408 0 8 3.584 8 8s-3.592 8-8 8-8-3.584-8-8 3.592-8 8-8zm0 32h1.888l4.36 16H176V72zm0 32h10.616l10.912 40H176v-40zm26.584 56l25.6 64H176v-64h26.584zM120 200c0-4.416 3.592-8 8-8h32v32h-40v-24zm-16 40h56v40h-56v-40zm250.664 56l2.136-1.6c19.992-14.984 43.504-25.504 67.992-30.4h46.24c4.944 0 8.968 4.024 8.968 8.968 0 2.36-.96 4.672-2.624 6.344L444.688 312H56v-16h298.664zM360 376c-12.552 0-24.36 5.528-32.384 15.168l-19.52 23.424C303.12 420.568 295.792 424 288 424s-15.112-3.432-20.096-9.416l-19.512-23.416C240.36 381.528 228.56 376 216 376s-24.36 5.528-32.384 15.168l-19.52 23.424C159.12 420.568 151.792 424 144 424s-15.112-3.432-20.096-9.416l-19.512-23.416C96.36 381.528 84.56 376 72 376c-11.376 0-22.096 4.576-29.992 12.6L16 349.576V328h414.56l-10.712 16H304v16h105.144L390 388.6c-7.896-8.024-18.624-12.6-30-12.6z" fill="#1e252d" /><path d="M272 344h16v16h-16z" fill="#1e252d" /></svg>