<svg xmlns="http://www.w3.org/2000/svg" viewBox="0 0 512.001 512.001"><path d="M500.106 286.596l-107.572 46.102V294.44c0-6.126-6.264-10.257-11.895-7.843l-117.857 50.51h-23.848v-65.05c0-11.207-9.077-20.284-20.284-20.284h-27.699c-11.207 0-20.284 9.077-20.284 20.284v65.05H135.925L119.444 114.61a8.534 8.534 0 0 0-8.51-7.903h-51.2a8.534 8.534 0 0 0-8.51 7.903L34.743 337.107h-9.142a8.533 8.533 0 0 0-8.481 7.591L.053 498.298c-.562 5.055 3.395 9.476 8.481 9.476h51.183l.017.001h51.2l.017-.001h196.233l.017.001h34.133l.017-.001h85.3l.017.001h34.133l.017-.001h42.65a8.533 8.533 0 0 0 8.533-8.533v-204.8c0-6.127-6.264-10.258-11.895-7.845zm-312.372-14.539a3.212 3.212 0 0 1 3.217-3.217h27.699a3.212 3.212 0 0 1 3.217 3.217v65.05h-34.133v-65.05zm-8.533 82.116H256.001v136.533h-86.229l-15.17-136.533h24.599zm-111.542-230.4h35.351l15.802 213.333H51.856l15.803-213.333zm-34.42 230.4H137.43l6.748 60.728 8.423 75.805h-33.133v-59.732a8.533 8.533 0 0 0-8.533-8.533h-51.2a8.533 8.533 0 0 0-8.533 8.533v59.732H18.068l15.171-136.533zm35.029 136.533v-51.199h34.133v51.199H68.268zm204.8-139.439l102.4-43.886V490.707h-25.6v-51.199a8.533 8.533 0 0 0-8.533-8.533h-34.133a8.533 8.533 0 0 0-8.533 8.533v51.199h-25.6v-139.44zm42.666 139.439V448.04h17.067v42.666h-17.067zm136.534 0h-17.067V448.04h17.067v42.666zm42.666 0h-25.6v-51.199a8.533 8.533 0 0 0-8.533-8.533h-34.133a8.533 8.533 0 0 0-8.533 8.533v51.199h-25.6v-139.44l102.4-43.886v183.326z" fill="#ffffff"/><path d="M96.966 89.058a91.348 91.348 0 0 1 3.4-1.217 153.25 153.25 0 0 1 9.17-2.8c6.766-1.839 13.399-3.151 19.494-3.709 15.125-1.385 23.181 1.804 24.722 9.903.146 1.54.74 5.139 1.815 9.698 1.785 7.568 4.325 15.146 7.788 22.294 10.333 21.334 26.748 34.68 49.981 34.68 8.989.247 18.044-.065 26.81-1.32 11.716-1.678 21.023-4.711 26.712-9.89 12.75 12.75 25.166 20.782 37.047 25.03 8.247 2.948 15.2 3.756 20.455 3.291 17.199-.204 33.063-7.336 47.688-18.964a123.74 123.74 0 0 0 12.73-11.68c14.34 11.226 29.254 14.599 41.605 13.608 2.984-.078 5.106-.104 7.162-.153 63.834-1.451 96.518-77.693 52.315-123.488a48.92 48.92 0 0 0-2.279-2.239c-5.49-4.948-14.246-1.052-14.246 6.339 0 22.336-5.237 34.57-13.254 39.893-3.765 2.5-7.732 3.19-10.845 2.897-.118-.011-1.502-.123-1.502-.123-15.986 0-32.371-14.647-46.142-36.202-8.075-12.652-17.761-23.041-29.081-30.609-11.858-7.923-21.175-10.586-27.677-9.988-20.876.113-37.946 7.328-51.255 19.24a82.85 82.85 0 0 0-5.033 4.899c-3.968-5.516-9.867-9.568-17.098-12.195-7.293-2.649-14.485-3.479-20.001-3.413-19.719.001-36.071 3.449-49.202 9.265-6.011 2.662-10.528 5.41-13.644 7.802h-13.933c-29.584 0-51.948 8.824-67.74 23.644-9.675 9.079-14.98 18.289-17.16 24.873-2.271 6.855 4.469 13.255 11.198 10.634zm73.702-42.085h17.067c2.24 0 4.391-.881 5.987-2.453 1.458-1.436 5.187-4.044 11.434-6.811 10.951-4.851 24.949-7.802 42.312-7.802 3.826-.046 9.149.568 14.153 2.386 7.579 2.753 11.447 7.15 11.447 14.68 0 9.062 12.261 11.876 16.213 3.721.331-.683 1.184-2.167 2.585-4.182a59.077 59.077 0 0 1 9.095-10.247c10.419-9.325 23.682-14.892 40.374-14.892l1.557-.143c-.073.034 1.087.145 3.036.701 3.557 1.015 7.923 3.095 13.101 6.555 9.226 6.168 17.307 14.835 24.18 25.604 16.551 25.906 36.444 43.782 59.931 44.08 7.174.679 14.927-.669 22.382-5.619 9.118-6.055 15.539-16.246 18.681-30.932 15.85 34.445-8.632 78.182-51.056 79.147-2.09.05-4.249.075-6.479.075l-1.265.094c-3.259.265-7.128.046-11.606-1.005-6.715-1.576-13.353-4.738-19.632-9.904a57.537 57.537 0 0 1-4.13-3.753c-3.648-3.648-9.674-3.25-12.81.847-.659.861-2.046 2.521-4.082 4.71a107.194 107.194 0 0 1-11.718 10.864c-12.041 9.574-24.686 15.213-37.158 15.213l-1.438.122c-2.84.242-7.324-.279-13.181-2.373-9.447-3.378-19.721-10.024-30.547-20.85l-8.533-8.533-17.067-17.067a8.534 8.534 0 0 0-12.068 12.068l13.152 13.152c-2.458 1.953-8.121 4.014-16.861 5.266-7.654 1.096-15.833 1.378-22.767 1.198a69.655 69.655 0 0 1-1.224-.04c-16.135-.009-27.271-9.063-35.02-25.062-2.867-5.919-5.02-12.34-6.536-18.772-.906-3.841-1.39-6.776-1.562-8.321-3.752-19.864-20.371-26.443-43.142-24.358-4.305.394-8.745 1.089-13.257 2.029 13.014-12.217 31.2-19.393 56.452-19.393zM187.734 465.107a8.533 8.533 0 0 0 8.533-8.533v-68.267c0-4.713-3.82-8.533-8.533-8.533s-8.533 3.82-8.533 8.533v68.267a8.534 8.534 0 0 0 8.533 8.533zM230.401 465.107a8.533 8.533 0 0 0 8.533-8.533v-68.267c0-4.713-3.82-8.533-8.533-8.533s-8.533 3.82-8.533 8.533v68.267a8.533 8.533 0 0 0 8.533 8.533zM307.201 405.374h34.133a8.533 8.533 0 0 0 8.533-8.533v-34.133a8.533 8.533 0 0 0-8.533-8.533h-34.133a8.533 8.533 0 0 0-8.533 8.533v34.133a8.533 8.533 0 0 0 8.533 8.533zm8.533-34.133h17.067v17.067h-17.067v-17.067zM426.668 405.374h34.133a8.533 8.533 0 0 0 8.533-8.533v-34.133a8.533 8.533 0 0 0-8.533-8.533h-34.133a8.533 8.533 0 0 0-8.533 8.533v34.133a8.532 8.532 0 0 0 8.533 8.533zm8.533-34.133h17.067v17.067h-17.067v-17.067z" fill="#ffffff"/></svg>