<svg id="Слой_1" xmlns="http://www.w3.org/2000/svg" viewBox="0 0 387.7 125.7"><style>.st0{fill:#fff}.st1{fill:#fff}.st2{fill-rule:evenodd;clip-rule:evenodd;fill:#ed1c24}.st3{fill:#fff}</style><path class="st0" d="M141.6 28.4c2.4-.4 6.8-.8 10.8-.8 5.7 0 15.1.9 15.1 8.5 0 4.2-3.2 6.8-7.1 7.7v.1c5 .7 8.6 3.5 8.6 8.4 0 8.9-11.2 10.1-17.9 10.1-3.8 0-7.7-.3-9.6-.4V28.4zm5.9 29.5c1.8.2 3 .3 5 .3 4.2 0 10.3-1 10.3-5.9s-4.9-6-10.8-6h-4.5v11.6zm0-15.6h4.6c4.6 0 9.3-1.3 9.3-5.3 0-3.4-3-5-9.1-5-2 0-3.3.1-4.8.3v10zM180.5 28v11.6c1.3-.3 3.3-.4 5.6-.4 7.3 0 14.7 3 14.7 11.4 0 3.6-1.3 6-3.5 7.9-3.7 3.2-9.2 3.9-13.7 3.9-3.4 0-6.6-.2-9.1-.5V28h6zm0 29.7c1.2.1 2.5.3 4.3.3 4.7 0 9.8-2 9.8-7.2 0-5.5-4.9-7.2-9.6-7.2-1.8 0-3.3.1-4.6.4v13.7zM211.1 28v34H205V28h6.1zM219 28h7.6l6.2 17.2c.8 2.5 2.3 6.7 3.1 9.3h.1c.8-2.5 2.7-7.9 4-11.7l5.5-14.8h7.7l2.4 34h-5.9l-.8-16.2c-.2-3.7-.5-8-.6-12.2h-.3c-.9 3.1-1.8 5.8-3.7 11l-6.5 17.2h-4.5l-6-16.8c-1.1-3.2-2.5-8.2-3.4-11.3h-.3c-.1 4-.3 8.5-.6 12.2l-.9 16.1h-5.7l2.6-34zM288.9 28v34h-6.2V32.9h-15.8V62h-6.1V28h28.1zM299.9 46.1c.1 8.4 5.5 11.8 11.7 11.8 4.4 0 7.1-.8 9.4-1.8l1.1 4.4c-2.2 1-5.9 2.1-11.3 2.1-10.5 0-16.7-6.9-16.7-17.1 0-10.3 6-18.3 16-18.3 11.1 0 14.1 9.8 14.1 16 0 1.3-.1 2.2-.2 2.9h-24.1zm18.2-4.4c.1-3.9-1.6-10-8.6-10-6.3 0-9 5.8-9.5 10h18.1zM357.8 28v34h-6.1V32.8H340v8.9c0 9.6-.9 16-5.3 18.8-1.7 1.3-3.6 2.1-6.8 2.1l-.6-4.8c1.2-.2 2.5-.7 3.4-1.4 3.2-2.3 3.5-7.1 3.5-14.7V28h23.6z"/><g><path class="st1" d="M161.1 70.7v28.1h-5v-24h-9.6V82c0 7.9-.8 13.2-4.4 15.5-1.4 1.1-3.5 1.7-6.1 1.7v-4c1-.2 2.1-.6 2.8-1.2 2.6-1.9 2.9-5.9 2.9-12.1V70.7h19.4zM193.7 84.5c0 10.4-7.2 14.9-14 14.9-7.6 0-13.4-5.6-13.4-14.4 0-9.4 6.1-14.9 13.9-14.9 8.1-.1 13.5 5.8 13.5 14.4zm-22.2.2c0 6.1 3.5 10.8 8.5 10.8 4.9 0 8.5-4.6 8.5-10.9 0-4.8-2.4-10.8-8.4-10.8s-8.6 5.6-8.6 10.9zM216.2 70.7v4.1H204v23.9h-5v-28h17.2zM226.1 70.7v11.8c0 4.5-.1 7.2-.3 11.2l.2.1c1.7-3.4 2.7-5.4 4.5-8.6l8.8-14.5h6v28.1h-4.9v-12c0-4.6.1-7 .3-11.5h-.2c-1.8 3.6-3 5.9-4.6 8.7-2.7 4.3-5.7 9.7-8.8 14.7h-5.9v-28h4.9zM272.5 97.7c-1.3.7-4.3 1.6-8.1 1.6-8.5 0-14-5.7-14-14.3 0-8.6 5.9-14.9 15.1-14.9 3 0 5.7.8 7.1 1.5l-1.2 3.9c-1.2-.7-3.1-1.3-5.9-1.3-6.4 0-9.9 4.8-9.9 10.6 0 6.5 4.2 10.5 9.7 10.5 2.9 0 4.8-.8 6.3-1.4l.9 3.8zM300.2 70.7v4.1h-8.7v24h-5v-24h-8.8v-4.1h22.5zM310.1 70.7v11.8c0 4.5-.1 7.2-.3 11.2l.2.1c1.7-3.4 2.7-5.4 4.5-8.6l8.8-14.5h6v28.1h-4.9v-12c0-4.6.1-7 .3-11.5h-.2c-1.8 3.6-3 5.9-4.6 8.7-2.7 4.3-5.7 9.7-8.8 14.7h-5.9v-28h4.9zM339.6 70.7v12.2h1.2l10.5-12.2h6.2l-12.2 12.7c4.5.5 7.2 3.5 9.5 8.5.8 1.9 1.7 4.6 3 6.8h-5.3c-.7-1.2-1.7-3.4-2.6-5.7-1.9-4.5-4.5-6.6-9.3-6.6h-1v12.3h-5v-28h5z"/></g><g><path class="st2" d="M127.3 111.4h-61L19.5 17.9h107.8z"/><path class="st3" d="M58.1 27.3v-.1.1zM79.6 106.5zM51.8 58.5zM54.4 76.5h-.1zM66.5 89.4zM72.5 95zM116.7 55.1c-1.1 0-2.6-.2-3.4-.3-4.2-.9-7.9-3.3-10-7.1-1-1.7-1.6-3.3-1.9-4.1-1-3.1-3.7-4.7-6.6-5.6 0-1.6-.4-3.4-1.3-5-2.3-3.9-6.3-4.6-10.5-5.1-4.8-.3-7.9.6-11.2.3-3.2-.3-6.1-1-7-2.8-.9-1.7-.7-3.1-.8-3 .1 0-1.4 1.3-.7 3.5.7 2.1 2.1 3 4.7 3.9 3.4 1.2 8.2 1 11.5 1.8 3.7 1 6.7 2.7 7.7 4.8l.3.6c-.7-.9-1.5-1.6-2.4-2.2-3.2-2.1-7.4-2.9-10.8-2.7-3.3.1-6.4.2-9-.2-4.9-.4-6.9-3.9-7.2-4.6.1.3.2 1.2.8 2.5.8 1.6 2.9 3.4 5.7 4.4 2.8 1.1 6.4.6 9.7 1 2 .1 3.8 1 5.4 2-5.4 0-10.5 2-12.9 4-12.5-4.7-15 6.9-15.2 6.9 4.4-2.5 5.3-.5 7.3 1.1-.5 1.5-1.1 3.1-1.6 4.6-1.6 1.8-3.5 4.5-5.6 4.7.9 1.1 2.3 1.8 4 1.6-.1.3-.1.6-.2 1-.9 2.4-1.9 5.7-4 6.5 1.1.7 2.4 1 3.9.6 0 .2.1.5.1.7.1.6.2 1.1.3 1.7-.1 2.2-.3 4.6-1.6 5.8 1.2.2 2.5.1 3.6-.7.1.2.4.6.7 1.1.8 1.2 1.4 2.6 1.6 4 .2 1 .1 2-.4 2.8 1.2-.2 2.4-.7 3.3-1.7.2.2.5.5.9.8 1.1 1 2 2.3 2.5 3.8.3 1 .4 2-.1 2.9 1.1-.3 2.3-.8 3.1-1.9l2.4 2.1c1 1.9 1.6 4.1.5 5.4 1.1-.2 2.4-.5 3.4-1.4l.1.1c1 1.2 1.6 2.6 1.7 4.1 0 1.1-.2 2-.9 2.6 1.1.1 2.4 0 3.5-.9.2.3.3.6.5.9.5 2.3.6 5.3-1.1 6.2 1 .2 2.2.5 3.4-.1v5.2h31.3c.3-1.6-.1-4.9-2.1-9.6-3.1-7.5-10.1-11.9-16.9-16-4.7-2.8-9.8-6.2-13.2-10.6-4.5-5.8-.1-11.7 7.4-9.9 4.6 1.1 7.8 5 11.6 7.6-2.7-.6-5.8-1.3-8.3-.4-2.8 1-3.1 3.3-3.2 3.5.1-.2 1.1-2.1 3.5-2.3 2.5-.3 5.6 1.2 8.9 1.9 1 .2 1.9.3 3-.2.2-.1.4-.2.5-.3.8.2 1.6.4 2.3.5-.2.7-.9 1.2-2.7 1.3-1.6 0-4.1-.9-6.2-1.1-2.2-.4-4.6.8-4.9 2.2-.4 1.1-.3 1.7-.3 1.9.2-.4 1.6-3.5 4.7-1.8 1.7.6 3.2 2 6.3 2.8 1.4.2 3.1.3 4.8-.5 1.7-.8 3-2.7 3.2-4.5v-1.1c2.8-1.6 3.2-5.3.3-9.3-.7 5.1-5.8 3.3-9.6 1.1.7-.7 1.6-2 .9-4 0 0-2.2 1.7-4 2.2-.1-.1-.3-.2-.4-.2-.2-.2-.7-.4-1.4-.8.7-.7 1.7-2.1.8-4.2 0 0-2.8 2.4-4.6 2.6-.8-.3-1.7-.6-2.6-.8.6-.7 1.5-2.1.7-4.1 0 0-3.4 2.9-5.1 2.6h-.3c1-3.5 3.5-4.5 6.4-4.3.9 1 2.3 3 2.2 4.3-.2 1.5 1.3-2.3 1.8-3.5 1 .3 2 .7 3 1 .5 1.3 1.3 3.4.8 4.4-.6 1.4 1.9-1.9 2.7-3 .3.1.6.3.9.4 2.4 1.2 3.5 3.8 2.8 6.4.9-.1 1.5-.4 2-.8 1.6-1.4 3.9-1.6 5.7-.5h.1c2 1.2 1.3 3.5 1.3 3.5 4.2-1.8 5.3-6.9 5.3-6.9 1.1-3.9.7-5.9-5.6-6.1zm-24.5-7.6c-.5-1.2-1.3-3.2-1.3-3.2s1.9.4 3 1.6c1.1 1.2 1.4 4.1 1.4 4.1s-2.6-1.3-3.1-2.5z"/></g></svg>