<svg id="Objects" xmlns="http://www.w3.org/2000/svg" viewBox="0 0 783.98 530.2"><defs><style>.cls-1,.cls-2{fill:#b2b2b2}.cls-1{stroke:#fff;stroke-width:.25px;stroke-miterlimit:10}.cls-3,.cls-4{stroke-miterlimit:10;fill:none;stroke:#b2b2b2}.cls-4{stroke-dasharray:3.97 3.97}</style></defs><title>map+samolet</title><path class="cls-1" d="M543.43 481.32a3 3 0 0 0-2.39 1.37 1.54 1.54 0 0 1 .36.59 2.56 2.56 0 0 0 1.25 1.41 1.16 1.16 0 0 1 .21 1.25 5.17 5.17 0 0 0 .9-.09c.61-.14 1.91-2 2.1-2.52s-1.64-1.96-2.43-2.01zM568.92 500.66c-1.25-1.15-1.59-.22-2.43-.66s-1.31-.61-1.73-.28a2.53 2.53 0 0 0-1.5 1.31 4.71 4.71 0 0 1-.47.89.65.65 0 0 0 .55.49c.33-.08.75.5 1.41.33s1.08.42 2 .17 1.74.33 2.08-.25a2.73 2.73 0 0 0-.25-1.83zM536.71 579.59c.14-2.44-2.72-1.63-3.67-.95s-3.67 0-4.48 1.63-2.17.68-4.07 1-4.62-.55-4.48-1.77-1.09-2.44-.95-3.93-1.9-.82-3.26-2.18-4.07-2.31-4.61-2-2.17-1.49-4.48-1.63-2-1.63-1.76-2.58-1.9-3.94-2.31-5.56-2-1.9-2.71-5.43-2.58-2.58-2.17-4.21-2.31-2.44-3-3.4-3.53-.54-5.57-1.63-3.26-.27-5.16-.81-6.25.55-6.78.55-3.94-.68-5.84 1.9-.41 2.44.41 2.44 1.22 2.44 1.36 3.26-1.36 2-2 2.31-2.58 3.26-2.85 4.35-2.44 3.79-2.17 4.75-1.08 1.9-2 2-3.53 2-4.34 2.31-4.07-.27-4.48-1.22a1.83 1.83 0 0 0-1-.77l-3.67 7.34-.3 2.36s-2.36.59-.59 2.37 2.07.29 4.73.29 3.84 2.07 4.44.59a2.62 2.62 0 0 1 4.43-.59c1.48 1.77 6.21 4.74 5.92 6.21s-3 1.18-4.73.59-4.14 1.18-5.91 1.18a7.84 7.84 0 0 0-5.62 2.37c-1.77 1.78-1.48 3.55-4.14 3.85s-3.84 0-6.8 2.07a7.51 7.51 0 0 1-7.39.59 3.19 3.19 0 0 0-4.44 1.18c-1.18 2.07 1.48 3 1.18 5.32s-3.25 1.78-5.62 4.43-6.21 3.85-8.28 3.55-6.51-1.48-10.35.29-6.51 4.44-8 4.14-1.48-2.07-3.55-1.78a6.38 6.38 0 0 1-4.73-1.18c-1.48-.89-2.66.59-5-1.18s-6.51-1.48-8.28-1.77-8.58 0-10.94-.3-5.62.59-5.92-.59-2.07-2.07-2.66-4.73-2.07-3.55-3.55-3.85-1.65-1.86-3-2.07c-.63-.1-1.38-2.08-3.45-2.08s-9.3-.84-10.33-2.53 1-2.07 1-3.76 1.13-3.95.28-4.6a6.74 6.74 0 0 1-2.44-3.48c-.19-1.32-2.44-3.1-3.95-3.19s-2.72-1-4.13-2.25-2.73-1.13-3.29-4.23a5.45 5.45 0 0 0-.15-.55c-.57-.06-1.29-.28-1.75-.28a2 2 0 0 1-1.2-.72c-.37 1.29-1.59 1.94-1.59 3s-.47 2.53-2 2.53-2.91 1.13-3 3.48 1.31 2.63.66 3.67-3.39 2.06-4.32 1.6-2.72-.19-4.23-.37-2.63-2.07-3.1 0-3.57 8.17-2.82 8.83 1.31 2.16 0 2.16a4.88 4.88 0 0 1-3.29-.85c-.66-.65-2.81.92-4.32.85-.7 0-3.65 1.29-2.64 1.8s1 3 1 4 2.24 4.07 1.83 5.09-2.44 2.14-2.44 3.46.4 2.55-.31 2.85a25.25 25.25 0 0 0-4.07 2c-1.12.81-3 .81-3.56 2a3.26 3.26 0 0 1-3.66 2c-1.83-.2-2.75-.51-4.18 1.22s-1.73 1-2.75 1.83-2-.61-2.85-.92-1.93.92-2.75.92-1.53 1.32-2.54 1.63-2 0-2 1.22a3.51 3.51 0 0 1-.75 2.27l.72 4s4.35 1.45 4.53 2.9.91 6.16.91 6.16h-.13c1.76 1.38 4.18 2.86 4.18 3.39a3.82 3.82 0 0 0 2.34 3.46 30.84 30.84 0 0 1 3.58 1.9l.17-.43 1.81-.18a5.89 5.89 0 0 1 1 .88c.45-1.47 3.57-3.08 5.2-3s5.7 3.26 5.29 4.38-3.26 5.19-4.58 5.49a11.28 11.28 0 0 1-2 .2 13.74 13.74 0 0 0-.28 1.64c0 .91 1.63 2.35 2.54 4s-1.45 2.72-2.72 1.63-1.81 1.09-1.09 2 .36 3.45 1.63 3.63 2.36 2.72 3.81 2.72 2.72 2.36 2.72 2.36 2 1.27 2 2a.56.56 0 0 1-.09.28c1.58-.16 2.63-.22 2.82-.87s2.24-.71 3.66.71 7.23 5.09 9.36 6.82 7.13 3.66 8.85 3.56 3.36 1.22 6 1.12a9.61 9.61 0 0 1 1.05 0 6 6 0 0 0 1.5-1.14c.72-1.09 1.81.91 1.45 2.35a3.15 3.15 0 0 0 .26 2 10.27 10.27 0 0 0 1-1.94c.92-2.24 2.34-2.14 3.26-2.85s1.83-.41 3.77.61 2.57-1.06 5.3 1.45a6 6 0 0 1 1.7-.53c.54 0 1.27-1.09 2.17-2s.73-2 1.81-1.81 1.63-1.27 4-2.53 4.35.72 5.44-.18 2.36-1.27 2.36-.36 1.45 2 1.81 3.08 2.23 1.37 2.63 1.43a7.19 7.19 0 0 0 .78-.45c1.12-.81 3.05.1 3.05 1.32s.1 2.54 1 2.54 1.83 0 1.83 2.24.81 4.78-1.12 6.72-4.18 5.39-3.76 6.41-.61 3 .81 2.24 4.68 0 4.17.81.1 3.67 1.42 3.77 2.14.82 1.73 2-1.12 3.06 0 3.06 2.75 0 2.54 1.22.81 2.34 2.85 1.53c1.2-.48 1.8-.91 2.07-.43.81 0 .87 1.81 2.26 2.16s.73-3.08.18-3.62.18-2.9.72-2.36 2.17 0 3.08-1.09 2.72.91 3.45-.36 2.35.9 4 0 2.36.72 3.08-.55 3.08-2.9 3.62-2.36.91 1.63 3.8 2 1.27 1.81 1.27 2.72 3.26 3.26 4.53 3.44a2.12 2.12 0 0 1 .94.75c.88-.43 2.46.29 2.8-.75.41-1.22 1.9-.89 2.51.13s1.29 1.22 2.65 0 2 1.22 1.22 1.9-.27 2.78 1 4 1.49-.74 1.22-2 2.17-2.44 6.45-3.87 8.89-4.55 9-5.23 3.05 1.22 4.48.13 6.58-1.22 7.94-1.29 1.29-1.22 2.72-2.37 1.08-1.7 2.72-2.17a3.66 3.66 0 0 0 2.64-2.79c0-.81 3.06-1.08 3.12-2s2.31-1.15 2.31-2.24 1.35-.88 2-1.7-.48-3.19.61-3.53-.41-1.63-.61-2.24 2-.75 3.18-1.49a4.66 4.66 0 0 0 2.11-3.19c.2-1.29 2.1-2.44 3-2.78s1.22-2.17 1-3.73 1.56-1.16.75-1.77.34-2.3 2-2.78-1-1.22-1.9-.54-1.83-2-2.65-1-3.12-.61-1.63-.95 3.8-2 4.82-2.38-1.49-2.58-2.79-2.51-2.71-3-4.07-3 1-.95 2.58-.13 3.39 1.5 4.07.81-2.65-3.39-3.87-4.34-.07-2.24-.81-2.79-2.38-4-2.92-5.56-3.39-1.83-4.07-2.85.07-3.39 2.17-4.28 1.22-2.65 2.17-2.44 1.76-.21 2.51-1.76 2-.61 2.78-1.43 4.07-.75 5.22-1.56-1.09-3.33-2.65-2.92a4.17 4.17 0 0 1-4.48-1.83c-1.09-1.63-3.94 3-6.11 4s-3.59-1.83-2.85-3.66-1.7-1.76-4.75-1.63-1.9-5.43-.07-5.7 4.54 1.7 5.7-1.7 2.78-.75 5.36-3.73 5.56-4.82 7.8-3.05-2.37 4.55-3.12 6.24.68 2.24-.68 3.53.54 1.63 3.19-.07a56.51 56.51 0 0 1 8.48-4.75 5 5 0 0 1 2.21-.28 3.74 3.74 0 0 1 1.3-2c1.77-.89 7.69-3.55 8.57-4.73s1.78-3.25 3-3.25 1.18 1.18 3 1.18 3.84.59 3-.89-.29-1.48 1.77-1.78 1.78-2.36 3.26-2.36 1.18-3.55 2.66-3.55 2.07 2.07 3.85 1.48a1.84 1.84 0 0 1 1.26.18c.38-.29.75-.58 1.12-.84-.18-1.85 0-3.51-.33-4.39-.68-1.63 0-2.85-.28-3.8s-.4-3.26.68-3.26 2.44-2.72 3.79-1.77 4.07 1.22 4.07 0 1.9-1.36 2.17-3 2.31-2 2.72-3.53 1.09-5 2.44-5.84-.46-1.17-.32-3.58zM470.2 708.12c-1.49 5.43 2 8.19 2.44 7.87 1.36-.95 6.92-12.62 5.7-14.25s-6.65.95-8.14 6.38zm-48.45 18.46c-1.76 0-6.24 2.58-4.48 6.24s7.6 1.22 7.74-.41 2.8-4.19 2.44-5.43c-.27-.98-3.93-.4-5.7-.4z" transform="translate(-12.15 -204.65)"/><path class="cls-1" d="M24.21 534.43a3.06 3.06 0 0 1-2.75-1c-.41-.57-1.67-.36-2.79-.25a1.87 1.87 0 0 1 .72.69c.61 1.09-2.44 1.22-1.49 2.51s-2.17 1.36-2.17 0-3.26-.68-3.12.2a1.68 1.68 0 0 1-.27 1.09c.89.32 1.92.69 2.32.85.62.24 8.75 1.09 11.93.5a18.8 18.8 0 0 1 .17-3c-.01-.88-1.94-1.9-2.55-1.59zm196.39-209c5.15-.54 5-3.39 2.31-3.94s-3.12 1.63-4.48 1.49-6.48.86-5.43 2c1.23 1.35 5 .67 7.61.4zm26.19 75.46c1.77.27 6.52-.68 7.06-1.63s-1.9-2-5-2-3.58 3.35-2.05 3.58zm100.3-69.36c2.58 1.08 1.63 1.77-1.08 1.77s-5 .91-3.26 1.63c1.36.54 1.22 2 4.07 2.71s5.7-1.63 5.43-3.26 9.91-3.12 12.62-3.8-1.77-3.53 1.22-3.8 1.77-1.63-1.9-2.17-2.17-3.66-3.39-4.75-1.9 1.36-6.65 2.31-7.06 2.17-5.16 3.12 0 3.26-2 3.13-2.47 1.98.11 3.06zm7.2 3.8c0 1.49-4.37 3-3.13 4.07 1.09 1 2 .68 3.4.95s2 3.67 4.48 3.13 9.09 2.71 13 2.71 4.34-3.26 3.12-3.39-.13-2 2-5.16-6.79-5.43-6.79-3-2.58-.54-3.39-2-12.68 1.15-12.68 2.64zm-67.87 67.59c2.17 1.09 3.8.68 3.53-1.49s-5.24.57-3.52 1.45zm57.14-81c.55-2-8.47-1.15-6.11.81.83.61 5.55 1.16 6.12-.88zM743 420.25c2.71 1.36 4.34-1.63 6.51-.14s7.47-.68 9.64-1.08 1.09-3.12-5-3.93-14.06 3.69-11.15 5.15zm-367.67-65.83c1.9 1.09 8-1.36 12.08-1.22s15.47-3.12 15.88-5.29-4.21-2-6-3.94-5.7-.27-6.65 1.36-2 .14.54-2.44-2.58-4.62-2.71-3-4.89.27-4.89 1.77-1.77 2.17-1.63 3.66-3.26-.81-3.39 2.58-5.23 5.38-3.23 6.52zm175.08 28a12 12 0 0 1 3.66 3c1.09 1.09 5.16-.54 6.79-1.09s1.77 2.44 4.34.81 5.16-.81 8.14-.81-.54-3.67-.4-5.29 3.53-.54 2.44.81 1.63 4.48 6 4.21 1.09-3 3.26-3.94 1.9-2-1.22-3.94-7.19-.68-9.91-1.9c-2.9-1.3-6.38-1.36-6.51 1.63s-5.84-3.26-8.82-4.21-12.25 8.43-7.77 10.68zm28.37 17.37c2.44-.54-1.77-5-6-5.7s-8.12 2.78-7.6 3.53c1.25 1.73 11.16 2.68 13.6 2.13zm-10.86-9c0-2-7.4.75-4.34 1.76 1.63.55 4.34.28 4.34-1.75zm23.61-8.55c3.26.27 4.89 3.39 11.13 3.8s10.86-.82 11-2.17-5.7-3.39-7.46-2.31-3.12-1.77-5.29-1.09-5.16.54-6.25-1.36-4.75 3-3.12 3.13zm-453.46-55.1c3.12-2.85 7.2-.14 7.73-1.5s-5.83-1.76-8.14-.54-7.71.24-7.06 1.76c.4.96 4.4 3.14 7.48.28zM577.7 556.51c-1.49-3.93 2.17-7.74-.55-9.77s-1.63-6.24-3-5.43 0 4.48-2.17 4.75-.14 2.3-.95 5 .4 6.65 1.49 9.09-1.49 15.47-.4 17.65-1.77 11.78-.82 12.89c1.63 1.9.54-2.58 3-3s2.44 2.71 3.94 3.39.55-4.34-.81-4.07-2.44-3.26-3.13-5.43 1.36-4.75 1.36-7.47 3.39-2.58 5.43-.54 2.31.68 1.49-.81-3.39-12.31-4.88-16.25zM150.84 325.92c1.9 1.36-5.29.95-6.24 2.31s-5.13.86-4.34 2.44 7.6 1.77 7.6.41 3.53-.14 3.67-1.36 1.63-2.58 5.43-2.85 3.8-1.63.27-3.26-8.29.95-6.39 2.31zM145 435.58c3.66 3.39 6.79-1.49 8.55-1.76s-1.08-2.17-4.07-3-7.24 2.18-4.48 4.76zm650.19 23.14c-1.35-.47-5.7-3.26-6.79-4.82s-6.31-2.31-6.31-1.5-1.7-.2-2.1-1.08-5.9-1-6-.07 1.29 1 2.1 2.11-1.09 1.69-.68 2.91-2-.61-2.92-1.29-.47-3.33-.2-4.68-1.56-1.09-1.77-2.44-6.31-4.14-8.89-5.23-5.91-2-6.79-3.39-5.5-1.49-7.26-3.33-9.5-5.09-12.83-5.29-2.58-2-4.21-1.77a65.6 65.6 0 0 1-10.79-.41c-2.17-.34-2.65 1.29-4.21.68S706 425.61 705 426.7s-.54 2.64-1.49 2.92 0 1.63 2.24 3.66.88 3.6-1.15 4.48-5.3-.82-6.31-2.38-3.8-.88-4.48-2.92.82-2.37 2.17-1.22a2.06 2.06 0 0 0 3.39-1.29c.2-1.49-3.66-2.51-5.77-2.38s-3.26 3.05-5.43 4.28-10.59-.48-11.47-1.29-12.62 0-13.84.81-.34 4-.95 4.28-1.22-3.67-1.22-4.41-1.42-1.29-3.53-1.29-3.32-.07-2.44-1-.82-1.77.81-2.92-3-4.75-7.46-6.52-14.66-.75-17.38.07-8.14.54-10.72.61-.48-1-1.22-2.24-5.16-2.71-5.77-1.7-1.76 0-1.76-.75-4.14-2.24-5.77-1.9-2.37-1.5-.48-1.5 5.16.41 3.73-1.76-13.64-2.85-14.79-2.44-.07 2-2.72 4.48-5.22.82-4.89-.41 3.6-1 3.6-2.24-4.48-.54-5.15-1.56.95-1.7 2.57-1.22 4.48.75 4.61 0-1.69-.88-4.41-1.36-9.3-2-12.76-1.69-5-1.29-6.92-1.43-1.9 1-1 2.1-1.83 1.77-4.07 1.43-5.5 1.22-4.21 2.85 2.58-.47 3.66.07-2.85 1.7-1.22 2.44 1.36 2.31 1.43 3.12-2.72 1.22-3.73 0-2.44-.14-4.35-.27-3.33.74-1.29 1 2.71 1.56 0 1.83-2-2.51-3.66-2.17-5.16-1.29-7.06-1.22-2.78 1.56-5.29 1.77-5.9-1.29-6.92-2.65-1.35-1.77-2.57-.2-1.29 4.55-2.51 4.75-1.7 2.85-2.92 3.53-1.29-1-2.85-.88-6.58-4.75-6.86-6.17-3.39-4.14-4.2-4.68.81-.81 1.83.07a2.9 2.9 0 0 0 3.32.34c1-.54.88-3.05-.88-3.12s-1.09-1.56-.21-1.83-2-2.92-.95-3.19.61-1.43-.88-1.63-3.05-1.42-3.13-2.17-6.38-1-6.11.07-2 .75-1.69-.13-2.24-.61-5.23-1.42-3.05-2.92-4.07-3.05-.68 2.92-2.17 2.24a1.72 1.72 0 0 0-2.31 2.37c.81 1.77.07 2-.07 3.46s-.95.81-2.71.2-1.77 1.49-5.56.54-5.5.07-6.18-1.15-1.83-1.36-2-.34-6 .61-6.44-.88 1-1.76 1.9-2.17-.95-1-4.14-.81-5.23-1.63-8.48-1.29-10.52 1-11.54 1.5 1 2.31-.61 2.44-.47-3-.74-4.48-2.65-1.7-2.31-.54-3.73 1.56-4.75.68a12.57 12.57 0 0 0-5.29-2.71c-2.64-.68-5.9 2.17-5.16 3s2.71.2 2.78.74c.14 1.12-5.63.68-5.63 1.63s-5.36 2.24-7 2.44c-4.46.56-5.43.54-7.53 2.31s-.47-1.56 1.15-3.19 3.32-1 4.28-2.24 2.44-1.16 5-1.56 2.44-1.9 3.67-2.44 4.2-1.7 4.75-2.92 6.65-3.26 7.88-3.19 1.49-2.44 2.17-2.44 4.21-1.56 5.57-2.17a3.58 3.58 0 0 0 2.1-2.78c.07-.88-1.83-.75-2-1.56s.88-.27 2.31-.81 0-2.44-1.15-2.1.61-1-.41-2.24-3.05.75-3-.54a5.23 5.23 0 0 0-.95-3.73c-.81-.82-2.3 1.42-4 .14s-6.65-2.1-6.65-1.56-2.38-.82-2.85-.27-4.41.47-5.64.13-2.92.48-3 1.7-4.88.75-5.77.54 3.33-3.66 3.33-4.28-7.13.14-7.53-.54-3.87-.89-5.43-.82-.07-.41 1.36-.54 2.71-1.36 4.28-1.63 1.22-.81.54-1.77-2.31-.47-3.87-.95a23.86 23.86 0 0 0-4.81-1.22c-1.36-.07-2.85.68-6 1.29s-3.46 3.05-5.09 3.8-4.48 3.73-3.12 4 .68 1.09.88 2-1 1.08-2.58.81-7.06-.2-7 1 3.19 1.69 3 2.31-2.37-.07-3.46-.68-3.53-.27-4 .88-2.38.88-3 .61-2 .54-3 .2 2-1.83 1.29-2.58-4-.07-4.34 1.16-2.31-.88-3.06-.47a29.8 29.8 0 0 1-3 1.49c-1.42.61-3.87-.68-4.41.41s2.72 1.42 2.78 1.9-7.39.41-7.6 1.16-2.72.75-5.77.81-1.83 1.56-4.28 2-3.53.54-4.34 1.77a2.36 2.36 0 0 1-3.53.47c-.81-.95-3.05.47-1.83.61s.07 1.36-.68 1.09-2.92 1.29-1.7 1.15 1.83.88 1.22 1.63-3.26-.88-3.94-.2 1.29 1.56 2.51 1.42a1.76 1.76 0 0 1 2 1.56c.14.88-2.85-.54-3.46.2s.47 1.09 1.76 1.22.34.61 1.5 1.63a2.36 2.36 0 0 1 .22.22c.7.84-.62 1.14-.49 1.95s-1.29 1.22-1.29.41-3.59-1.09-4.34-.2-1.29 1.56-2.17.75-3.46.2-6.78.34-10.18.41-11.87 1-3.12 3-1.56 4.55.07 2.24.07 3.26 4.07 3.12 6.25 3.32 3.94 2.85 2.64 4.48-5.23-.47-7.8-2.51-8.55-2.85-10.52-2.71-.82-1.77-3.32-1.7-4.62 2.31-2.92 2.31 2.79-.14 1.9.68.47.61 2.51 1.49-1.7 2.11-3.8.68a3.56 3.56 0 0 0-5 1c-.61 1.08 2.44 4.2 6.11 4.75s2.44 1.7 4.14 2.31.48 1.29-.68 1.36-3.46-1.77-5.29-2.71-6.78.41-7.8-.68.68-2.17-.28-3-.13-2.65 1.09-4.55-.2-5.16-2-5.7-1.63 1.29-1.22 1.83.2 3.12-1.16 4.82-5.5 1.7-5.5 2.85-2.78 2-1.83 2.85 4.68 5 5.23 6.31-3.33 5.36-2.72 7.74-.54 3.46.2 4.61 2.44.13 3.53.61 2.85-.68 5.36-1.15 7.13 2.17 8.82 3 .81 2.17 1.7 3.53-2 1.36-2.11 3.39 5.09 2.92 5.29 3.53-3.67.14-5.16-.41-1.63-2.51-2.1-2.92 1-2 1.15-3.33-1.69-2-2.3-2.92-1.7-2.17-2.92-1.9-5.7.68-7.06 1.9.2 4.68 1 6.38-3.94 4.07-3.8 5.43-1.42 2-3.46 3.06-4.27 1.9-4.21 3.66-2.71.81-4.14 0-3.26.47-5.3.4-2-1.76-3.67-1.15a1.59 1.59 0 0 1-2.24-2c.47-1.22 2.31-.27 2.44.61s1.29.47 2.64-.27.68 1 2.65 1.09.88-1 2.37-.88 1.56-.34 1.09-1.09 1.09-1.29 2-1.7.54-2 1.42-2.44.27-1.43 1.22-1.5 1.36-1.49 2.24-1.49 1.36-1.43.81-2.17.34-2.78 1.22-3.05 1-1.09.14-1.7-3.81-2.65-3.6-3.94-.4-3.6 0-4.6.07-3.13-.07-4.35.75-2.58 1.16-4.82-2.38-4.62-3.73-5.23-.48-1.83 1.49-3.46 2.1-6.72 2-7.8-4.14-2-5.7-1.9a61.63 61.63 0 0 1-8.75-.41c-1.42-.27-1.9 1.22-2.58 2.58a31.6 31.6 0 0 0-3.05 6.52c-.88 3.05-4.48 4-6.11 4.68s-2.64 2.92-1.9 4 1.84.2 2.58.61-.07 3.26-.55 3.67.88 1.42-.27 2.17-2.24 2.31-1.56 3.12 4 1.22 5.43 2 .88 2.31 2 3.73 2.24.54 2.78 1.42-2 4.41-2.85 4.54-4.48-3.59-5.56-4.41-5.29-2.11-7.4-3.19-3.8-.95-6.11-2.51-4.27-2.31-8.48-2.24-6.92-.95-8.35-.75-.88-1.42-3.39-2.51-4.14-2.58-5.57-1.83-.88 3.46 1.29 3.8 1.08 1.49 3.39 1.36 3 .68 2.92 2.1 1.08 2.85 2.1 3.8.4 2.51-1.43 2.51-3.93.27-3.12 1.56-.54 1.63-2.38 1-.75-2 0-2.72-1.63-1.7-2.78-2.1-5.77 3-7.06 3.53-4.48-.82-7.74 0-3.05 3.4-4.28 3.12-4.82.34-6.18-.48-.27-1.29 1.15-1.22 1.9-.41 1.09-1.36 1.09-2.44 1-3.12-5.36 1.09-6.24 1.83.07 2.11-.88 2.58-.95-.82-2-1.22-9 1.42-10.52 3.12-4.41 1.76-4.41 2.71-3.6.88-5 1.56-.47 3.46-1 4.82-6.11.95-7.8 1-2.31-3.26-3.66-3.46-.55-2.1-.13-2.92 1.49-.14 3.19-1.22 3.39.54 4.07-.21-2.58-2.72-2.78-4.41-3.8-2.17-5.84-1.63a8.77 8.77 0 0 1-5.7-.61c-1.43-.68-1.29 1.22.81 1.77s1 2.17 1.36 3.19-.55 3.33-1.77 5.09-.34 1.7 1.49 1.63 1.7 2.31 1.7 4.07-1.43 2.24-1.43 3.53-1.49-.61-2-.07-1.08-.27-1.35-1.36-3.05-.48-4.61-.88-2.17.27-2.92 1.42-2.92 1.63-4.07 1.77-3.19 2.38-4.41 3.19-1.42 2.38.27 4 2 2.72 1.9 3.59-4.75.61-5.49-.34-3.74-1.29-4.75-1.09-3.8-3.05-5.22-3.12-2.31 1.69-2.78 2.57.68 1.16 1.36 2.65 3.19 1.56 4.48 1.56.81 2 .41 2.78-2.78 1.42-3.46.54-3.53 0-3.6-1.09-2.1-2.71-4.21-2.37-2.51-1-2.37-2.65-1.15-2.57-1.09-3.32-.95-2.24.14-3 .27-1.9.34-2.92-1.83-2.58-3.53-2.58-1.35-1.7-2.78-2-4.28-2.72-4.48-3.73-2.38-1.16-1.63-1.49 2.34.13 3.56 1.31a10.56 10.56 0 0 0 6.38 2.72c3.19.41 4.48 1.9 8 2.51s5.63 1 10.72 1.77 11.88-4.41 13.3-5.84-.41-4.34-.41-5.43-2.31-1.22-2.64-2a4.48 4.48 0 0 0-3.8-2.31c-2 0-2.24-2.24-3.8-2.1s-2.65-.68-6.72-3.4-9.7-4.68-10.72-4.21-1.7.75-2.37-.27-2.24-.88-3.32-.07-2.17-.75-4.21-.27-3.12-.88-2.58-1.49 3.53-.07 3.39-1.08-1.22 0-3.05-1.22-2.85-.41-3.26.61-1.83.74-2.79-.14a1.6 1.6 0 0 0-.31-.22c-.31 1.7-1.32 1.87-2.33 1.64-1.22-.27-2.44 1.76-3.8 1.76a3.81 3.81 0 0 0-3.13 2.72c-.27 1.22-1.76.54-1.76 1.36a3.37 3.37 0 0 1-.68 2.44c-.67.82 0 1.22.68 2.58s2.17 1.22 2.85 1.63 3.26 2.58 3.26 3.39-2 2.85-2.85 3.4-1.9 1.9-1.36 2.71 2.85 4.21 4.34 6.93-.54 1.49-1.49 2.71.4 2.72.68 3.53-1.22.68-1.08 1.35 2.17 1 2.31 1.5-1.36 1.22-.68 2.31 2.31 1.08 2.44 2.44-3 1.49-2.85 2.58S63.44 477 65.2 479s1.63 2.58 1.22 3.67c-.82 2.18-5.7 4.07-6.79 6.51s-5.16 3.8-7.06 5.7a19 19 0 0 0-2.19 2.79 9.63 9.63 0 0 0 1.92-.68c1.09-.55 1.83 2.1 2.92 3s3.26.07 4 .88-.61.88-2.17.61-2 .68-4.41 1.49c-1.82.61-1.64 1.26-2.25 1.77 1.1 1.59-.37 1.8-.93 3s-1.43 1.53-1.53 2.34a14.71 14.71 0 0 0 .31 2.64 3.75 3.75 0 0 0 1 2.44c.71 1-.61 1-1.22 1.53s-.2 1.63.61 2.44a2.27 2.27 0 0 1 .51 2.54c-.31.71.71 1.94 1.42 2.65s.61 2.65 1.22 3.15a2.49 2.49 0 0 0 2.44.71 1.9 1.9 0 0 1 2.34 1.12c.51.91 1.32.51 2.45 0s3.66.91 4.27 1.22.3 2 .4 3.15-.61 2.54.51 3.26.81 2.34 2.14 2.85 1.83 2.34 2.65 2.54a4.41 4.41 0 0 1 2.54 2.34c.2.92-1.42 1.73-2.34 2.14s-2.64-1.22-3.25-.51.2 2 .71 4.28.92 2.44 1.94 2.44 1.42-.71 2.14-1.12 2.34.2 3.06-.1 3.25-.41 3.76.41 1 2.75.61 3.46.51 1.52 1 2.54 2.64.51 3.36.82 2.34 2.54 2 3.56 1 1.22 1.73.92 1.42.51 2.24 1a2 2 0 0 0 2.34-.21c.81-.51 2.14-.91 2.54-.2s2 2 2 2.44 2.55 0 3.76.61 2.55.3 3.87 1 2.54.82 2.64 1.63-1.32 1.53-1.32 1.93 1.12.72 1.12 1.32-1.42.61-1.63 1.12.81 1.22 1 1.73-.81 2.24-.81 2.75-3.05-.1-3.76-.1-2.85 2.34-3.56 2.44-.32 1.22-.1 2.18c2.19-.42 4.44-.59 4.68-.1.41.81-4.75 3-5.7 3.32s1.83 1.76 1.77 2.58-3 1-2.72 2.64-.95 2-2.51 2-2 .95-1.22 1.08.68 2.17 3.6 2.92 6 3.46 8.55 6.18a5.21 5.21 0 0 0 1.19.94 6 6 0 0 1 1.72-.8 9.56 9.56 0 0 1 5.5 1.63c1.43 1 6.51-.2 7.13.61a4.4 4.4 0 0 0 2.85 1.83c1 0 2 2 2.85 1.42s3.87-.61 4.68-.61.82.61 1.63.61.82 3.06 1.43 2.85 2.85 1.83 4.27 2 2.85 2.64 3.46 2.44 1.63 1 2 0 2.4-.5 3-2.17c-2.58-3.16-5.35-6.66-5.27-8 .14-2.31 1.09-3.8-1.77-6.24s.27-4.07 2.31-6.65c1.82-2.3 5.69-3.31 8.14-5a9.24 9.24 0 0 0-1.49-.88c-1.83-.82-2.44-1.63-1-2s.81-1.22-.61-2.85-2-3.26-2.85-3.26a9.32 9.32 0 0 0-3.26.2c-1.22.41-1-1-.81-2.44s-2.24-1.22-2.64-1.83.61-2.64 1-2.85 1.63-.81 1.63-1.42-2.24-.82-1.43-2.24 2.44-1.42 2.44-2.85 1.22-2.65 2.64-1.63 2 3.67 3.67 3.06.61-2 .41-2.85-.61-2 1.22-2.44 1-2.24 2.44-2.24 4.07-1.83 4.89-2.24 2.65-1.42 3.46-1 1.83 1.43 2.45 0 3-.81 3.25 0 4.07.82 5.29 1.63 3.87 2.44 3.87 3.26 1.22 2 1.22.61 1-1 2.64 0 4 .64 4.43-.36 3.46-2.24 4.48-1.42 1.42 1.42 2.65.2 4.07-1 4.48.2 1.83 1.43 3.05 1.43 1.42 1.83 2.24 1.42.61-2.44 1.63-2.24 1.8 1.41 3.47 1.41 2.85-.41 2.85-1.63-.2-3.26-1.22-3.26-2-1-3.26-1-2.44-2-1.22-2.44 3.26-1.42 2.85-2.44-.81-3.05.82-3.26 5.09-.2 4.89-.81-3.46-1-4.07-2-.82-3.46-.21-3.87 2.65.2 3.87-.2 3.87.61 5.5-.61 5.09-1.42 6.92-1.42 3.26-1.22 4.68-1.42a52.94 52.94 0 0 0 6.51-1.22c1-.4 6.51-1.22 6.72-2.24s4.58-1.83 5.7-1.32a5 5 0 0 0 3.56.51c1-.4 3.16.71 3 1.84s.92 2.34.82 3.25-1.12 1.22-.51 1.94 3.36.2 4.17-.71 1.63.31 1.63 1.06 1.32 1.22 1.32.31 1.63-.31 2.14.3 2.44-.71 2.44.3-2.85 1.83-1.63 3 1.93-1.32 3.46-.81 3.56-1.73 5-2 3-1.63 4.17-2.34 3.87-.51 3.06.31-1.73 2.34 1.32 3.46 6.51 7 8.44 10 3.77 8.25 4.79 8.25 1.32-2.65 2.65-3 2.14 2.24 3.56 2.54 3.36 1.12 4.48.71 3.66-1.83 4.58-1.32 2.14.51 3 2.44 2 2.34 2.85 2.34 1 .91 1 1.73 1.49 1.9 2.3 1.9a11 11 0 0 0 3.67-.68c.68-.4 1.5-.81 1.63.14s1.36 2.44 2.17 2.44 2.44.68 2.58 0 2.31-1.08 3.12-1.22 3.67-.68 4.21-1.9 2.85-1.22 3.53-2 2.57-1.22 3-2 2.85-.68 3.12-1.36 2.3-.81 3.26-.55a39.07 39.07 0 0 0 6.38 1.09c.68-.14.82 2.44 1.49 2.58s3.13 2 3.8 1.49a3.43 3.43 0 0 1 3.67-.28c1.36.82 2.72 1.9 3.26 1s3.39-1.36 3.8-1.9.81-2.17.13-2.72-1.35-2.71-1.63-3.8 1.63-1.36 1.9-2.31 1.9-1.09 2.44-1.63.68-1.76 1.63-1.49a13.51 13.51 0 0 1 3.39 1.36 5.52 5.52 0 0 0 2.85.68 8.9 8.9 0 0 1 3.39 1.36c1 .54 3.94.54 4.48 1.36s-.14 3.12.54 3.94 2.31 2.57 2.85 2.17 3.12 1.36 4.07 1.22 2.44-1.63 3.25-1.63 3.39-.68 4.21-.54 3.8 1.22 4.21.95 3.12.14 3.53 1 3.8.81 3.8 1.76 1.9 1.49 2.44 2.58 5 .41 5.84 1.09 6 .55 6.11 0 5-.82 6-1.49 3.53-.4 3.67-1.36 2.58-1.63 3.66-2.44 5.43-.68 5.7.27 2.85 1.22 3.94.81 3.94.14 4.34 1.09 3.66 1.49 4.48 1.22 3.39-2.17 4.34-2.31 2.3-1.09 2-2 1.9-3.66 2.17-4.75 2.17-4.07 2.85-4.35 2.17-1.49 2-2.31-.54-3.26-1.36-3.26-2.31.14-.41-2.44 5.29-1.9 5.84-1.9 4.89-1.09 6.78-.55 3.12-.27 5.16.81 4.89.68 5.57 1.63 3.39 1.77 3 3.4 1.49.68 2.17 4.21 2.31 3.8 2.71 5.43 2.58 4.62 2.31 5.56-.54 2.44 1.76 2.58 3.94 1.9 4.48 1.63 3.25.68 4.61 2 3.39.68 3.26 2.18 1.09 2.71.95 3.93 2.58 2 4.48 1.77 3.26.68 4.07-1 3.53-.95 4.48-1.63 3.8-1.49 3.67.95 1.49 3 .13 3.8-2 4.34-2.44 5.84-2.44 1.9-2.72 3.53-2.17 1.77-2.17 3-2.71 1-4.07 0-2.71 1.77-3.79 1.77-1 2.31-.68 3.26-.4 2.17.28 3.8c.36.87.14 2.53.32 4.39 1.65-1.2 3.15-2.08 3.82-2.08 1.7 0 3.39 2.92 5.29 3s10.52-5.7 10.58-6.65 5.09-5.77 7.47-8.28 5.5-6.18 6.72-9c.75-1.76 4.07-5.16 4.89-6.52a25.23 25.23 0 0 0 2.85-4.68c1.49-3.19 1.49-11.54 2-12.08s.2-2 .88-2.85.34-2.1 1.7-3.26a2.34 2.34 0 0 0 .75-3.05c-.34-.88.07-2.85-.27-3.46s-.27-.88.54-1.35-.54-1.7-1.7-2.24-2.64-1-2.78-2.31-2.1-2.85-3.6-2.72-4.27-.81-3.94.14-.14 1.76-.88 1.56-1.09.41-2 1.77-4 1.49-2.58.2-.47-1.36-.2-2.71 1.43-2.72-.13-1.83-1.56 3-2.85 3.26-.88-3.67-.55-4.68-2.37.07-5.22-.14-2.1-2.17.2-3.39 1.9-2.37 3.05-2.85 4.14-2.44 5.91-3.46a5.11 5.11 0 0 0 2.51-3.32c.41-1.15 3.66-2.58 6.58-5s4.34-3.74 5-5.16 5-3.19 5.09-4.27 5.16-3.8 8.62-4.48 9 .2 10 1.22a1.42 1.42 0 0 0 2.38-.07c.61-.68 2-.34 4.27-.07s2.85-1.09 4.41-.61 2.85.75 3.8-1.09 5.43-1.49 6.45-.75 1.84 1.76 3.46.68 1.63 1.42 3.19 1.63.54 1.56-.81 1.42-3.05.68-1.49 1.56 3.4-.82 4.62-.68a7.19 7.19 0 0 0 4.81-.81c1.7-1.09 2.17.88 3.26-.07s3.53-1.22 4.75-1.15.2-1.42-1.83-1.42-2-1.08-.34-3.87 4.75-4.28 6.72-6 3.39-.88 3.39-2 .95-4.14 2.44-4.2 5.22.61 7.53-.68 2.1 1 3.05 1.29 2.24-2 3.32-1.29-1.63 2.31-2.24 4.27 1.42 1.23 2.58 1.77-1.5 1.36-1.22 1.9 2.58.55 5.56-2.44 5.7-3.8 7.6-3.6.81-1.7.95-4.48 6-3.6 7.87-2.78 1.77 1.56-.07 1.08-3.53 1.15-3.46 3.46-1.63 3.05-.74 3.94-1.29 1.08-1.36 2 0 1.69-1.36 2.1-5.9.88-6 2.64-2.58 2-3.74 4.14-5.56 3.46-8.48 7.81-7.53 4.34-7.53 5.15-3.19.75-4.28.88 1 2.78-1.56 5.56a15.49 15.49 0 0 0-4.24 10.43c.07 3.87 1.36 15 2.51 17s.47 6.79 1.42 7.8.61 2.71 1.22 3.32 3.12-2.72 4.82-4.14 1.15-1.9 2.31-2.64.68-3.87 1-4.69 2.44-1.22 3.12-2.1 2.44-.34 3.39-.68-.07-2.57-.41-3.87 2.78-3.05 4.41-4.21 3.66.75 5.5-.95-.13-3.67-.81-4.54 1.83-5.16 3.26-5.57 2.17 1 3.53-.2-1.22-3.19-2.17-3.05-1.29-3.46.95-5.16 1.36-2-.14-2.44-1.77.14-2.92.2-2.31-2.38-.54-4.75 3.46-2.11 3.87-4.07 2.85-4.75 3.46-5.77 3.05 0 4-.2.61 1.83 1.76.81 3.05-4.41 4.61-4.41.55 2.51 1 4 1.29-.41 4.27-2.44 9.5-1.83 11.47-.88 2.31 3.19 3.39 2.92c1.65-.41.27-2.24 1.9-2.72a28.12 28.12 0 0 0 6.65-3.73c2.17-1.56 1.56-.4 2.71-1.83s2.31-.81 2.64-1.76 3.46-2.51 7.74-3.46 9.84-3.8 9.57-4.68 1.63-1.29 1.83-.41 1.83.54 4.07 1 3.26 1.36 5-.4-.21-2.38-.14-3.73-3.06-2.79-2.65-4.21-2.3-5.23-3.12-4.48-2.72-.61-2.72-1.7-.13-2.38-1.42-1.56-3.46.41-3.87-.81 2.51-2.1 4.54-1.29 1.43 1.63 2.44 2.24 3.8.34 5.22-.34 5.43-2 6.11-3.12-.07-1.7 1.29-2.38.34-2.1-.82-2.71a1.16 1.16 0 0 1 .34-2.24c1.22 0 .88-1.43 1.7-1.49s.95.61 2.44-.13.07 1.15-.61 2.44 1.42 2.37 1.63 3.12 3.12 1 4.75.13 6.86 1.09 7.19 2.37a5.84 5.84 0 0 0 3.26 3.94c2.17 1.08 4.14.61 4.55 1.63a2 2 0 0 0 2.44 1.29c1.22-.27 1.9 1.08 2.78.27s1.36.48 2.51-.54-2.51-1.7-2-2.51 1.22.61 2.24.54-.27-2 .48-2.24.13-4.27-.68-4.54-.14-1.7 1.42-.55 4 1.09 5.16 1.09.07-1.09-1.08-1.29.2-1.15 1-.41 2.37 1.09 2.51.27.95-2.58 2.37-2.51 1.9-.77.54-1.24zm-378.47 89c-3.87 3.46-11.6 4.27-11.6 7.13s-9.36 4.27-10.18 3.05c-.71-1.07 6.92-1.42 8.75-5.5s8.78-6.17 12.22-11.6c2.44-3.87 4.48-9.77 5.91-9.36s-1.23 12.86-5.1 16.32zM434 388.35c-.54 1.09-3.49 1.16-2.71 2.17 1.36 1.77 8.14.82 8.28-1.36s-5.06-1.89-5.57-.81zm-247.15-67c3.26 0 2.31-2 4.48-1.77s5 .14 3.94-1.22-9-.82-8.14.27-6.38.68-6.24 1.09c.22.77 2.66 1.59 5.92 1.59zM170 330.4c0-2.17-7.07.22-5.7.68s5.7 1.49 5.7-.68zm17.51-1.77c.4 1.08-.68 1.22-3.39 1.22s-4.13 1.53-2.72 2.71c1.63 1.36 8.82.81 10-.81s4.34-.27 4.88-1.9-9.2-2.3-8.79-1.22zm23.21-2.58c.95-1.22-1.77-1.22-2-2.44s-7.87-1.49-7.46-.13-5.26 2.83-3.53 4.2c3.19 2.58 12.01-.4 12.97-1.63zm-21.58-2.17c.41-2.85-4.34-.54-7.87-2s-5.61-1.38-3.26.68c1.09 1-6 1.69-4.89 2.85 2.56 2.59 15.59 1.32 16-1.52zm-20.22 75.33c.13 1.36-.68 2.31-3.26 2.31s1.22 1.63 1.49 3.12-2.58.41-2.71 2.72-5 0-5.7 3 2.44 2.58 4.61 2.72-.82 2.17.81 3.39 2.85.81 1.77-1.49 5.7.81 3.66 2.58 3.26 3.12 5.84 3.26 11.73 2.13 11.94 0c.14-1.36-3.39-2.58-6.24-5.57s-4.89-7.87-1.63-9.91.41-3 3.66-5.29 1.36-4.48 4.07-4.75-.27-2.71 2.44-3.12a3.64 3.64 0 0 0 2.85-4.48c-.41-1.08 2.85.14 4.34-1.49s5-.54 6.11-2.85 16.7-7.6 25.52-9.64 14.93-5.7 11.81-8.14-11.94 1-14.12 2.72-5.29.54-7.46 1.76-6.79 2.31-9.09.81-5 1.77-6.79 1.63-3.8 1.76-5.7 1.63-5.7 1.5-6 2.58-3.53.81-3.53 2.17-2.58 2.58-3.94 1.36-3 1.36-1.08 3.12-3.53 1.9-2.58 3-2 1.77-1.35 3-1.9 1.63-3.94 2-3.12 3.12-.54 3.26-1.5.54-1.22 2.58-4.2.65-4.07 2.01z" transform="translate(-12.15 -204.65)"/><path class="cls-1" d="M24.21 534.43a3.06 3.06 0 0 1-2.75-1c-.41-.57-1.67-.36-2.79-.25a1.87 1.87 0 0 1 .72.69c.61 1.09-2.44 1.22-1.49 2.51s-2.17 1.36-2.17 0-3.26-.68-3.12.2a1.68 1.68 0 0 1-.27 1.09c.89.32 1.92.69 2.32.85.62.24 8.75 1.09 11.93.5a18.8 18.8 0 0 1 .17-3c-.01-.88-1.94-1.9-2.55-1.59zm196.39-209c5.15-.54 5-3.39 2.31-3.94s-3.12 1.63-4.48 1.49-6.48.86-5.43 2c1.23 1.35 5 .67 7.61.4zm26.19 75.46c1.77.27 6.52-.68 7.06-1.63s-1.9-2-5-2-3.58 3.35-2.05 3.58zm100.3-69.36c2.58 1.08 1.63 1.77-1.08 1.77s-5 .91-3.26 1.63c1.36.54 1.22 2 4.07 2.71s5.7-1.63 5.43-3.26 9.91-3.12 12.62-3.8-1.77-3.53 1.22-3.8 1.77-1.63-1.9-2.17-2.17-3.66-3.39-4.75-1.9 1.36-6.65 2.31-7.06 2.17-5.16 3.12 0 3.26-2 3.13-2.47 1.98.11 3.06zm7.2 3.8c0 1.49-4.37 3-3.13 4.07 1.09 1 2 .68 3.4.95s2 3.67 4.48 3.13 9.09 2.71 13 2.71 4.34-3.26 3.12-3.39-.13-2 2-5.16-6.79-5.43-6.79-3-2.58-.54-3.39-2-12.68 1.15-12.68 2.64zm-67.87 67.59c2.17 1.09 3.8.68 3.53-1.49s-5.24.57-3.52 1.45zm57.14-81c.55-2-8.47-1.15-6.11.81.83.61 5.55 1.16 6.12-.88zM743 420.25c2.71 1.36 4.34-1.63 6.51-.14s7.47-.68 9.64-1.08 1.09-3.12-5-3.93-14.06 3.69-11.15 5.15zm-367.67-65.83c1.9 1.09 8-1.36 12.08-1.22s15.47-3.12 15.88-5.29-4.21-2-6-3.94-5.7-.27-6.65 1.36-2 .14.54-2.44-2.58-4.62-2.71-3-4.89.27-4.89 1.77-1.77 2.17-1.63 3.66-3.26-.81-3.39 2.58-5.23 5.38-3.23 6.52zm175.08 28a12 12 0 0 1 3.66 3c1.09 1.09 5.16-.54 6.79-1.09s1.77 2.44 4.34.81 5.16-.81 8.14-.81-.54-3.67-.4-5.29 3.53-.54 2.44.81 1.63 4.48 6 4.21 1.09-3 3.26-3.94 1.9-2-1.22-3.94-7.19-.68-9.91-1.9c-2.9-1.3-6.38-1.36-6.51 1.63s-5.84-3.26-8.82-4.21-12.25 8.43-7.77 10.68zm28.37 17.37c2.44-.54-1.77-5-6-5.7s-8.12 2.78-7.6 3.53c1.25 1.73 11.16 2.68 13.6 2.13zm-10.86-9c0-2-7.4.75-4.34 1.76 1.63.55 4.34.28 4.34-1.75zm23.61-8.55c3.26.27 4.89 3.39 11.13 3.8s10.86-.82 11-2.17-5.7-3.39-7.46-2.31-3.12-1.77-5.29-1.09-5.16.54-6.25-1.36-4.75 3-3.12 3.13zm-453.46-55.1c3.12-2.85 7.2-.14 7.73-1.5s-5.83-1.76-8.14-.54-7.71.24-7.06 1.76c.4.96 4.4 3.14 7.48.28zM577.7 556.51c-1.49-3.93 2.17-7.74-.55-9.77s-1.63-6.24-3-5.43 0 4.48-2.17 4.75-.14 2.3-.95 5 .4 6.65 1.49 9.09-1.49 15.47-.4 17.65-1.77 11.78-.82 12.89c1.63 1.9.54-2.58 3-3s2.44 2.71 3.94 3.39.55-4.34-.81-4.07-2.44-3.26-3.13-5.43 1.36-4.75 1.36-7.47 3.39-2.58 5.43-.54 2.31.68 1.49-.81-3.39-12.31-4.88-16.25zM150.84 325.92c1.9 1.36-5.29.95-6.24 2.31s-5.13.86-4.34 2.44 7.6 1.77 7.6.41 3.53-.14 3.67-1.36 1.63-2.58 5.43-2.85 3.8-1.63.27-3.26-8.29.95-6.39 2.31zM145 435.58c3.66 3.39 6.79-1.49 8.55-1.76s-1.08-2.17-4.07-3-7.24 2.18-4.48 4.76zm650.19 23.14c-1.35-.47-5.7-3.26-6.79-4.82s-6.31-2.31-6.31-1.5-1.7-.2-2.1-1.08-5.9-1-6-.07 1.29 1 2.1 2.11-1.09 1.69-.68 2.91-2-.61-2.92-1.29-.47-3.33-.2-4.68-1.56-1.09-1.77-2.44-6.31-4.14-8.89-5.23-5.91-2-6.79-3.39-5.5-1.49-7.26-3.33-9.5-5.09-12.83-5.29-2.58-2-4.21-1.77a65.6 65.6 0 0 1-10.79-.41c-2.17-.34-2.65 1.29-4.21.68S706 425.61 705 426.7s-.54 2.64-1.49 2.92 0 1.63 2.24 3.66.88 3.6-1.15 4.48-5.3-.82-6.31-2.38-3.8-.88-4.48-2.92.82-2.37 2.17-1.22a2.06 2.06 0 0 0 3.39-1.29c.2-1.49-3.66-2.51-5.77-2.38s-3.26 3.05-5.43 4.28-10.59-.48-11.47-1.29-12.62 0-13.84.81-.34 4-.95 4.28-1.22-3.67-1.22-4.41-1.42-1.29-3.53-1.29-3.32-.07-2.44-1-.82-1.77.81-2.92-3-4.75-7.46-6.52-14.66-.75-17.38.07-8.14.54-10.72.61-.48-1-1.22-2.24-5.16-2.71-5.77-1.7-1.76 0-1.76-.75-4.14-2.24-5.77-1.9-2.37-1.5-.48-1.5 5.16.41 3.73-1.76-13.64-2.85-14.79-2.44-.07 2-2.72 4.48-5.22.82-4.89-.41 3.6-1 3.6-2.24-4.48-.54-5.15-1.56.95-1.7 2.57-1.22 4.48.75 4.61 0-1.69-.88-4.41-1.36-9.3-2-12.76-1.69-5-1.29-6.92-1.43-1.9 1-1 2.1-1.83 1.77-4.07 1.43-5.5 1.22-4.21 2.85 2.58-.47 3.66.07-2.85 1.7-1.22 2.44 1.36 2.31 1.43 3.12-2.72 1.22-3.73 0-2.44-.14-4.35-.27-3.33.74-1.29 1 2.71 1.56 0 1.83-2-2.51-3.66-2.17-5.16-1.29-7.06-1.22-2.78 1.56-5.29 1.77-5.9-1.29-6.92-2.65-1.35-1.77-2.57-.2-1.29 4.55-2.51 4.75-1.7 2.85-2.92 3.53-1.29-1-2.85-.88-6.58-4.75-6.86-6.17-3.39-4.14-4.2-4.68.81-.81 1.83.07a2.9 2.9 0 0 0 3.32.34c1-.54.88-3.05-.88-3.12s-1.09-1.56-.21-1.83-2-2.92-.95-3.19.61-1.43-.88-1.63-3.05-1.42-3.13-2.17-6.38-1-6.11.07-2 .75-1.69-.13-2.24-.61-5.23-1.42-3.05-2.92-4.07-3.05-.68 2.92-2.17 2.24a1.72 1.72 0 0 0-2.31 2.37c.81 1.77.07 2-.07 3.46s-.95.81-2.71.2-1.77 1.49-5.56.54-5.5.07-6.18-1.15-1.83-1.36-2-.34-6 .61-6.44-.88 1-1.76 1.9-2.17-.95-1-4.14-.81-5.23-1.63-8.48-1.29-10.52 1-11.54 1.5 1 2.31-.61 2.44-.47-3-.74-4.48-2.65-1.7-2.31-.54-3.73 1.56-4.75.68a12.57 12.57 0 0 0-5.29-2.71c-2.64-.68-5.9 2.17-5.16 3s2.71.2 2.78.74c.14 1.12-5.63.68-5.63 1.63s-5.36 2.24-7 2.44c-4.46.56-5.43.54-7.53 2.31s-.47-1.56 1.15-3.19 3.32-1 4.28-2.24 2.44-1.16 5-1.56 2.44-1.9 3.67-2.44 4.2-1.7 4.75-2.92 6.65-3.26 7.88-3.19 1.49-2.44 2.17-2.44 4.21-1.56 5.57-2.17a3.58 3.58 0 0 0 2.1-2.78c.07-.88-1.83-.75-2-1.56s.88-.27 2.31-.81 0-2.44-1.15-2.1.61-1-.41-2.24-3.05.75-3-.54a5.23 5.23 0 0 0-.95-3.73c-.81-.82-2.3 1.42-4 .14s-6.65-2.1-6.65-1.56-2.38-.82-2.85-.27-4.41.47-5.64.13-2.92.48-3 1.7-4.88.75-5.77.54 3.33-3.66 3.33-4.28-7.13.14-7.53-.54-3.87-.89-5.43-.82-.07-.41 1.36-.54 2.71-1.36 4.28-1.63 1.22-.81.54-1.77-2.31-.47-3.87-.95a23.86 23.86 0 0 0-4.81-1.22c-1.36-.07-2.85.68-6 1.29s-3.46 3.05-5.09 3.8-4.48 3.73-3.12 4 .68 1.09.88 2-1 1.08-2.58.81-7.06-.2-7 1 3.19 1.69 3 2.31-2.37-.07-3.46-.68-3.53-.27-4 .88-2.38.88-3 .61-2 .54-3 .2 2-1.83 1.29-2.58-4-.07-4.34 1.16-2.31-.88-3.06-.47a29.8 29.8 0 0 1-3 1.49c-1.42.61-3.87-.68-4.41.41s2.72 1.42 2.78 1.9-7.39.41-7.6 1.16-2.72.75-5.77.81-1.83 1.56-4.28 2-3.53.54-4.34 1.77a2.36 2.36 0 0 1-3.53.47c-.81-.95-3.05.47-1.83.61s.07 1.36-.68 1.09-2.92 1.29-1.7 1.15 1.83.88 1.22 1.63-3.26-.88-3.94-.2 1.29 1.56 2.51 1.42a1.76 1.76 0 0 1 2 1.56c.14.88-2.85-.54-3.46.2s.47 1.09 1.76 1.22.34.61 1.5 1.63a2.36 2.36 0 0 1 .22.22c.7.84-.62 1.14-.49 1.95s-1.29 1.22-1.29.41-3.59-1.09-4.34-.2-1.29 1.56-2.17.75-3.46.2-6.78.34-10.18.41-11.87 1-3.12 3-1.56 4.55.07 2.24.07 3.26 4.07 3.12 6.25 3.32 3.94 2.85 2.64 4.48-5.23-.47-7.8-2.51-8.55-2.85-10.52-2.71-.82-1.77-3.32-1.7-4.62 2.31-2.92 2.31 2.79-.14 1.9.68.47.61 2.51 1.49-1.7 2.11-3.8.68a3.56 3.56 0 0 0-5 1c-.61 1.08 2.44 4.2 6.11 4.75s2.44 1.7 4.14 2.31.48 1.29-.68 1.36-3.46-1.77-5.29-2.71-6.78.41-7.8-.68.68-2.17-.28-3-.13-2.65 1.09-4.55-.2-5.16-2-5.7-1.63 1.29-1.22 1.83.2 3.12-1.16 4.82-5.5 1.7-5.5 2.85-2.78 2-1.83 2.85 4.68 5 5.23 6.31-3.33 5.36-2.72 7.74-.54 3.46.2 4.61 2.44.13 3.53.61 2.85-.68 5.36-1.15 7.13 2.17 8.82 3 .81 2.17 1.7 3.53-2 1.36-2.11 3.39 5.09 2.92 5.29 3.53-3.67.14-5.16-.41-1.63-2.51-2.1-2.92 1-2 1.15-3.33-1.69-2-2.3-2.92-1.7-2.17-2.92-1.9-5.7.68-7.06 1.9.2 4.68 1 6.38-3.94 4.07-3.8 5.43-1.42 2-3.46 3.06-4.27 1.9-4.21 3.66-2.71.81-4.14 0-3.26.47-5.3.4-2-1.76-3.67-1.15a1.59 1.59 0 0 1-2.24-2c.47-1.22 2.31-.27 2.44.61s1.29.47 2.64-.27.68 1 2.65 1.09.88-1 2.37-.88 1.56-.34 1.09-1.09 1.09-1.29 2-1.7.54-2 1.42-2.44.27-1.43 1.22-1.5 1.36-1.49 2.24-1.49 1.36-1.43.81-2.17.34-2.78 1.22-3.05 1-1.09.14-1.7-3.81-2.65-3.6-3.94-.4-3.6 0-4.6.07-3.13-.07-4.35.75-2.58 1.16-4.82-2.38-4.62-3.73-5.23-.48-1.83 1.49-3.46 2.1-6.72 2-7.8-4.14-2-5.7-1.9a61.63 61.63 0 0 1-8.75-.41c-1.42-.27-1.9 1.22-2.58 2.58a31.6 31.6 0 0 0-3.05 6.52c-.88 3.05-4.48 4-6.11 4.68s-2.64 2.92-1.9 4 1.84.2 2.58.61-.07 3.26-.55 3.67.88 1.42-.27 2.17-2.24 2.31-1.56 3.12 4 1.22 5.43 2 .88 2.31 2 3.73 2.24.54 2.78 1.42-2 4.41-2.85 4.54-4.48-3.59-5.56-4.41-5.29-2.11-7.4-3.19-3.8-.95-6.11-2.51-4.27-2.31-8.48-2.24-6.92-.95-8.35-.75-.88-1.42-3.39-2.51-4.14-2.58-5.57-1.83-.88 3.46 1.29 3.8 1.08 1.49 3.39 1.36 3 .68 2.92 2.1 1.08 2.85 2.1 3.8.4 2.51-1.43 2.51-3.93.27-3.12 1.56-.54 1.63-2.38 1-.75-2 0-2.72-1.63-1.7-2.78-2.1-5.77 3-7.06 3.53-4.48-.82-7.74 0-3.05 3.4-4.28 3.12-4.82.34-6.18-.48-.27-1.29 1.15-1.22 1.9-.41 1.09-1.36 1.09-2.44 1-3.12-5.36 1.09-6.24 1.83.07 2.11-.88 2.58-.95-.82-2-1.22-9 1.42-10.52 3.12-4.41 1.76-4.41 2.71-3.6.88-5 1.56-.47 3.46-1 4.82-6.11.95-7.8 1-2.31-3.26-3.66-3.46-.55-2.1-.13-2.92 1.49-.14 3.19-1.22 3.39.54 4.07-.21-2.58-2.72-2.78-4.41-3.8-2.17-5.84-1.63a8.77 8.77 0 0 1-5.7-.61c-1.43-.68-1.29 1.22.81 1.77s1 2.17 1.36 3.19-.55 3.33-1.77 5.09-.34 1.7 1.49 1.63 1.7 2.31 1.7 4.07-1.43 2.24-1.43 3.53-1.49-.61-2-.07-1.08-.27-1.35-1.36-3.05-.48-4.61-.88-2.17.27-2.92 1.42-2.92 1.63-4.07 1.77-3.19 2.38-4.41 3.19-1.42 2.38.27 4 2 2.72 1.9 3.59-4.75.61-5.49-.34-3.74-1.29-4.75-1.09-3.8-3.05-5.22-3.12-2.31 1.69-2.78 2.57.68 1.16 1.36 2.65 3.19 1.56 4.48 1.56.81 2 .41 2.78-2.78 1.42-3.46.54-3.53 0-3.6-1.09-2.1-2.71-4.21-2.37-2.51-1-2.37-2.65-1.15-2.57-1.09-3.32-.95-2.24.14-3 .27-1.9.34-2.92-1.83-2.58-3.53-2.58-1.35-1.7-2.78-2-4.28-2.72-4.48-3.73-2.38-1.16-1.63-1.49 2.34.13 3.56 1.31a10.56 10.56 0 0 0 6.38 2.72c3.19.41 4.48 1.9 8 2.51s5.63 1 10.72 1.77 11.88-4.41 13.3-5.84-.41-4.34-.41-5.43-2.31-1.22-2.64-2a4.48 4.48 0 0 0-3.8-2.31c-2 0-2.24-2.24-3.8-2.1s-2.65-.68-6.72-3.4-9.7-4.68-10.72-4.21-1.7.75-2.37-.27-2.24-.88-3.32-.07-2.17-.75-4.21-.27-3.12-.88-2.58-1.49 3.53-.07 3.39-1.08-1.22 0-3.05-1.22-2.85-.41-3.26.61-1.83.74-2.79-.14a1.6 1.6 0 0 0-.31-.22c-.31 1.7-1.32 1.87-2.33 1.64-1.22-.27-2.44 1.76-3.8 1.76a3.81 3.81 0 0 0-3.13 2.72c-.27 1.22-1.76.54-1.76 1.36a3.37 3.37 0 0 1-.68 2.44c-.67.82 0 1.22.68 2.58s2.17 1.22 2.85 1.63 3.26 2.58 3.26 3.39-2 2.85-2.85 3.4-1.9 1.9-1.36 2.71 2.85 4.21 4.34 6.93-.54 1.49-1.49 2.71.4 2.72.68 3.53-1.22.68-1.08 1.35 2.17 1 2.31 1.5-1.36 1.22-.68 2.31 2.31 1.08 2.44 2.44-3 1.49-2.85 2.58S63.44 477 65.2 479s1.63 2.58 1.22 3.67c-.82 2.18-5.7 4.07-6.79 6.51s-5.16 3.8-7.06 5.7a19 19 0 0 0-2.19 2.79 9.63 9.63 0 0 0 1.92-.68c1.09-.55 1.83 2.1 2.92 3s3.26.07 4 .88-.61.88-2.17.61-2 .68-4.41 1.49c-1.82.61-1.64 1.26-2.25 1.77 1.1 1.59-.37 1.8-.93 3s-1.43 1.53-1.53 2.34a14.71 14.71 0 0 0 .31 2.64 3.75 3.75 0 0 0 1 2.44c.71 1-.61 1-1.22 1.53s-.2 1.63.61 2.44a2.27 2.27 0 0 1 .51 2.54c-.31.71.71 1.94 1.42 2.65s.61 2.65 1.22 3.15a2.49 2.49 0 0 0 2.44.71 1.9 1.9 0 0 1 2.34 1.12c.51.91 1.32.51 2.45 0s3.66.91 4.27 1.22.3 2 .4 3.15-.61 2.54.51 3.26.81 2.34 2.14 2.85 1.83 2.34 2.65 2.54a4.41 4.41 0 0 1 2.54 2.34c.2.92-1.42 1.73-2.34 2.14s-2.64-1.22-3.25-.51.2 2 .71 4.28.92 2.44 1.94 2.44 1.42-.71 2.14-1.12 2.34.2 3.06-.1 3.25-.41 3.76.41 1 2.75.61 3.46.51 1.52 1 2.54 2.64.51 3.36.82 2.34 2.54 2 3.56 1 1.22 1.73.92 1.42.51 2.24 1a2 2 0 0 0 2.34-.21c.81-.51 2.14-.91 2.54-.2s2 2 2 2.44 2.55 0 3.76.61 2.55.3 3.87 1 2.54.82 2.64 1.63-1.32 1.53-1.32 1.93 1.12.72 1.12 1.32-1.42.61-1.63 1.12.81 1.22 1 1.73-.81 2.24-.81 2.75-3.05-.1-3.76-.1-2.85 2.34-3.56 2.44-.32 1.22-.1 2.18c2.19-.42 4.44-.59 4.68-.1.41.81-4.75 3-5.7 3.32s1.83 1.76 1.77 2.58-3 1-2.72 2.64-.95 2-2.51 2-2 .95-1.22 1.08.68 2.17 3.6 2.92 6 3.46 8.55 6.18a5.21 5.21 0 0 0 1.19.94 6 6 0 0 1 1.72-.8 9.56 9.56 0 0 1 5.5 1.63c1.43 1 6.51-.2 7.13.61a4.4 4.4 0 0 0 2.85 1.83c1 0 2 2 2.85 1.42s3.87-.61 4.68-.61.82.61 1.63.61.82 3.06 1.43 2.85 2.85 1.83 4.27 2 2.85 2.64 3.46 2.44 1.63 1 2 0 2.4-.5 3-2.17c-2.58-3.16-5.35-6.66-5.27-8 .14-2.31 1.09-3.8-1.77-6.24s.27-4.07 2.31-6.65c1.82-2.3 5.69-3.31 8.14-5a9.24 9.24 0 0 0-1.49-.88c-1.83-.82-2.44-1.63-1-2s.81-1.22-.61-2.85-2-3.26-2.85-3.26a9.32 9.32 0 0 0-3.26.2c-1.22.41-1-1-.81-2.44s-2.24-1.22-2.64-1.83.61-2.64 1-2.85 1.63-.81 1.63-1.42-2.24-.82-1.43-2.24 2.44-1.42 2.44-2.85 1.22-2.65 2.64-1.63 2 3.67 3.67 3.06.61-2 .41-2.85-.61-2 1.22-2.44 1-2.24 2.44-2.24 4.07-1.83 4.89-2.24 2.65-1.42 3.46-1 1.83 1.43 2.45 0 3-.81 3.25 0 4.07.82 5.29 1.63 3.87 2.44 3.87 3.26 1.22 2 1.22.61 1-1 2.64 0 4 .64 4.43-.36 3.46-2.24 4.48-1.42 1.42 1.42 2.65.2 4.07-1 4.48.2 1.83 1.43 3.05 1.43 1.42 1.83 2.24 1.42.61-2.44 1.63-2.24 1.8 1.41 3.47 1.41 2.85-.41 2.85-1.63-.2-3.26-1.22-3.26-2-1-3.26-1-2.44-2-1.22-2.44 3.26-1.42 2.85-2.44-.81-3.05.82-3.26 5.09-.2 4.89-.81-3.46-1-4.07-2-.82-3.46-.21-3.87 2.65.2 3.87-.2 3.87.61 5.5-.61 5.09-1.42 6.92-1.42 3.26-1.22 4.68-1.42a52.94 52.94 0 0 0 6.51-1.22c1-.4 6.51-1.22 6.72-2.24s4.58-1.83 5.7-1.32a5 5 0 0 0 3.56.51c1-.4 3.16.71 3 1.84s.92 2.34.82 3.25-1.12 1.22-.51 1.94 3.36.2 4.17-.71 1.63.31 1.63 1.06 1.32 1.22 1.32.31 1.63-.31 2.14.3 2.44-.71 2.44.3-2.85 1.83-1.63 3 1.93-1.32 3.46-.81 3.56-1.73 5-2 3-1.63 4.17-2.34 3.87-.51 3.06.31-1.73 2.34 1.32 3.46 6.51 7 8.44 10 3.77 8.25 4.79 8.25 1.32-2.65 2.65-3 2.14 2.24 3.56 2.54 3.36 1.12 4.48.71 3.66-1.83 4.58-1.32 2.14.51 3 2.44 2 2.34 2.85 2.34 1 .91 1 1.73 1.49 1.9 2.3 1.9a11 11 0 0 0 3.67-.68c.68-.4 1.5-.81 1.63.14s1.36 2.44 2.17 2.44 2.44.68 2.58 0 2.31-1.08 3.12-1.22 3.67-.68 4.21-1.9 2.85-1.22 3.53-2 2.57-1.22 3-2 2.85-.68 3.12-1.36 2.3-.81 3.26-.55a39.07 39.07 0 0 0 6.38 1.09c.68-.14.82 2.44 1.49 2.58s3.13 2 3.8 1.49a3.43 3.43 0 0 1 3.67-.28c1.36.82 2.72 1.9 3.26 1s3.39-1.36 3.8-1.9.81-2.17.13-2.72-1.35-2.71-1.63-3.8 1.63-1.36 1.9-2.31 1.9-1.09 2.44-1.63.68-1.76 1.63-1.49a13.51 13.51 0 0 1 3.39 1.36 5.52 5.52 0 0 0 2.85.68 8.9 8.9 0 0 1 3.39 1.36c1 .54 3.94.54 4.48 1.36s-.14 3.12.54 3.94 2.31 2.57 2.85 2.17 3.12 1.36 4.07 1.22 2.44-1.63 3.25-1.63 3.39-.68 4.21-.54 3.8 1.22 4.21.95 3.12.14 3.53 1 3.8.81 3.8 1.76 1.9 1.49 2.44 2.58 5 .41 5.84 1.09 6 .55 6.11 0 5-.82 6-1.49 3.53-.4 3.67-1.36 2.58-1.63 3.66-2.44 5.43-.68 5.7.27 2.85 1.22 3.94.81 3.94.14 4.34 1.09 3.66 1.49 4.48 1.22 3.39-2.17 4.34-2.31 2.3-1.09 2-2 1.9-3.66 2.17-4.75 2.17-4.07 2.85-4.35 2.17-1.49 2-2.31-.54-3.26-1.36-3.26-2.31.14-.41-2.44 5.29-1.9 5.84-1.9 4.89-1.09 6.78-.55 3.12-.27 5.16.81 4.89.68 5.57 1.63 3.39 1.77 3 3.4 1.49.68 2.17 4.21 2.31 3.8 2.71 5.43 2.58 4.62 2.31 5.56-.54 2.44 1.76 2.58 3.94 1.9 4.48 1.63 3.25.68 4.61 2 3.39.68 3.26 2.18 1.09 2.71.95 3.93 2.58 2 4.48 1.77 3.26.68 4.07-1 3.53-.95 4.48-1.63 3.8-1.49 3.67.95 1.49 3 .13 3.8-2 4.34-2.44 5.84-2.44 1.9-2.72 3.53-2.17 1.77-2.17 3-2.71 1-4.07 0-2.71 1.77-3.79 1.77-1 2.31-.68 3.26-.4 2.17.28 3.8c.36.87.14 2.53.32 4.39 1.65-1.2 3.15-2.08 3.82-2.08 1.7 0 3.39 2.92 5.29 3s10.52-5.7 10.58-6.65 5.09-5.77 7.47-8.28 5.5-6.18 6.72-9c.75-1.76 4.07-5.16 4.89-6.52a25.23 25.23 0 0 0 2.85-4.68c1.49-3.19 1.49-11.54 2-12.08s.2-2 .88-2.85.34-2.1 1.7-3.26a2.34 2.34 0 0 0 .75-3.05c-.34-.88.07-2.85-.27-3.46s-.27-.88.54-1.35-.54-1.7-1.7-2.24-2.64-1-2.78-2.31-2.1-2.85-3.6-2.72-4.27-.81-3.94.14-.14 1.76-.88 1.56-1.09.41-2 1.77-4 1.49-2.58.2-.47-1.36-.2-2.71 1.43-2.72-.13-1.83-1.56 3-2.85 3.26-.88-3.67-.55-4.68-2.37.07-5.22-.14-2.1-2.17.2-3.39 1.9-2.37 3.05-2.85 4.14-2.44 5.91-3.46a5.11 5.11 0 0 0 2.51-3.32c.41-1.15 3.66-2.58 6.58-5s4.34-3.74 5-5.16 5-3.19 5.09-4.27 5.16-3.8 8.62-4.48 9 .2 10 1.22a1.42 1.42 0 0 0 2.38-.07c.61-.68 2-.34 4.27-.07s2.85-1.09 4.41-.61 2.85.75 3.8-1.09 5.43-1.49 6.45-.75 1.84 1.76 3.46.68 1.63 1.42 3.19 1.63.54 1.56-.81 1.42-3.05.68-1.49 1.56 3.4-.82 4.62-.68a7.19 7.19 0 0 0 4.81-.81c1.7-1.09 2.17.88 3.26-.07s3.53-1.22 4.75-1.15.2-1.42-1.83-1.42-2-1.08-.34-3.87 4.75-4.28 6.72-6 3.39-.88 3.39-2 .95-4.14 2.44-4.2 5.22.61 7.53-.68 2.1 1 3.05 1.29 2.24-2 3.32-1.29-1.63 2.31-2.24 4.27 1.42 1.23 2.58 1.77-1.5 1.36-1.22 1.9 2.58.55 5.56-2.44 5.7-3.8 7.6-3.6.81-1.7.95-4.48 6-3.6 7.87-2.78 1.77 1.56-.07 1.08-3.53 1.15-3.46 3.46-1.63 3.05-.74 3.94-1.29 1.08-1.36 2 0 1.69-1.36 2.1-5.9.88-6 2.64-2.58 2-3.74 4.14-5.56 3.46-8.48 7.81-7.53 4.34-7.53 5.15-3.19.75-4.28.88 1 2.78-1.56 5.56a15.49 15.49 0 0 0-4.24 10.43c.07 3.87 1.36 15 2.51 17s.47 6.79 1.42 7.8.61 2.71 1.22 3.32 3.12-2.72 4.82-4.14 1.15-1.9 2.31-2.64.68-3.87 1-4.69 2.44-1.22 3.12-2.1 2.44-.34 3.39-.68-.07-2.57-.41-3.87 2.78-3.05 4.41-4.21 3.66.75 5.5-.95-.13-3.67-.81-4.54 1.83-5.16 3.26-5.57 2.17 1 3.53-.2-1.22-3.19-2.17-3.05-1.29-3.46.95-5.16 1.36-2-.14-2.44-1.77.14-2.92.2-2.31-2.38-.54-4.75 3.46-2.11 3.87-4.07 2.85-4.75 3.46-5.77 3.05 0 4-.2.61 1.83 1.76.81 3.05-4.41 4.61-4.41.55 2.51 1 4 1.29-.41 4.27-2.44 9.5-1.83 11.47-.88 2.31 3.19 3.39 2.92c1.65-.41.27-2.24 1.9-2.72a28.12 28.12 0 0 0 6.65-3.73c2.17-1.56 1.56-.4 2.71-1.83s2.31-.81 2.64-1.76 3.46-2.51 7.74-3.46 9.84-3.8 9.57-4.68 1.63-1.29 1.83-.41 1.83.54 4.07 1 3.26 1.36 5-.4-.21-2.38-.14-3.73-3.06-2.79-2.65-4.21-2.3-5.23-3.12-4.48-2.72-.61-2.72-1.7-.13-2.38-1.42-1.56-3.46.41-3.87-.81 2.51-2.1 4.54-1.29 1.43 1.63 2.44 2.24 3.8.34 5.22-.34 5.43-2 6.11-3.12-.07-1.7 1.29-2.38.34-2.1-.82-2.71a1.16 1.16 0 0 1 .34-2.24c1.22 0 .88-1.43 1.7-1.49s.95.61 2.44-.13.07 1.15-.61 2.44 1.42 2.37 1.63 3.12 3.12 1 4.75.13 6.86 1.09 7.19 2.37a5.84 5.84 0 0 0 3.26 3.94c2.17 1.08 4.14.61 4.55 1.63a2 2 0 0 0 2.44 1.29c1.22-.27 1.9 1.08 2.78.27s1.36.48 2.51-.54-2.51-1.7-2-2.51 1.22.61 2.24.54-.27-2 .48-2.24.13-4.27-.68-4.54-.14-1.7 1.42-.55 4 1.09 5.16 1.09.07-1.09-1.08-1.29.2-1.15 1-.41 2.37 1.09 2.51.27.95-2.58 2.37-2.51 1.9-.77.54-1.24zm-378.47 89c-3.87 3.46-11.6 4.27-11.6 7.13s-9.36 4.27-10.18 3.05c-.71-1.07 6.92-1.42 8.75-5.5s8.78-6.17 12.22-11.6c2.44-3.87 4.48-9.77 5.91-9.36s-1.23 12.86-5.1 16.32zM434 388.35c-.54 1.09-3.49 1.16-2.71 2.17 1.36 1.77 8.14.82 8.28-1.36s-5.06-1.89-5.57-.81zm-247.15-67c3.26 0 2.31-2 4.48-1.77s5 .14 3.94-1.22-9-.82-8.14.27-6.38.68-6.24 1.09c.22.77 2.66 1.59 5.92 1.59zM170 330.4c0-2.17-7.07.22-5.7.68s5.7 1.49 5.7-.68zm17.51-1.77c.4 1.08-.68 1.22-3.39 1.22s-4.13 1.53-2.72 2.71c1.63 1.36 8.82.81 10-.81s4.34-.27 4.88-1.9-9.2-2.3-8.79-1.22zm23.21-2.58c.95-1.22-1.77-1.22-2-2.44s-7.87-1.49-7.46-.13-5.26 2.83-3.53 4.2c3.19 2.58 12.01-.4 12.97-1.63zm-21.58-2.17c.41-2.85-4.34-.54-7.87-2s-5.61-1.38-3.26.68c1.09 1-6 1.69-4.89 2.85 2.56 2.59 15.59 1.32 16-1.52zm-20.22 75.33c.13 1.36-.68 2.31-3.26 2.31s1.22 1.63 1.49 3.12-2.58.41-2.71 2.72-5 0-5.7 3 2.44 2.58 4.61 2.72-.82 2.17.81 3.39 2.85.81 1.77-1.49 5.7.81 3.66 2.58 3.26 3.12 5.84 3.26 11.73 2.13 11.94 0c.14-1.36-3.39-2.58-6.24-5.57s-4.89-7.87-1.63-9.91.41-3 3.66-5.29 1.36-4.48 4.07-4.75-.27-2.71 2.44-3.12a3.64 3.64 0 0 0 2.85-4.48c-.41-1.08 2.85.14 4.34-1.49s5-.54 6.11-2.85 16.7-7.6 25.52-9.64 14.93-5.7 11.81-8.14-11.94 1-14.12 2.72-5.29.54-7.46 1.76-6.79 2.31-9.09.81-5 1.77-6.79 1.63-3.8 1.76-5.7 1.63-5.7 1.5-6 2.58-3.53.81-3.53 2.17-2.58 2.58-3.94 1.36-3 1.36-1.08 3.12-3.53 1.9-2.58 3-2 1.77-1.35 3-1.9 1.63-3.94 2-3.12 3.12-.54 3.26-1.5.54-1.22 2.58-4.2.65-4.07 2.01z" transform="translate(-12.15 -204.65)"/><path class="cls-2" d="M596.09 229.59c3-1.26 5.29-3 6.25-4.65a2.68 2.68 0 0 0 .42-1.45 1.27 1.27 0 0 0-.17-.63 2.61 2.61 0 0 0-1.1-1.07c-1.65-.95-4.54-1.3-7.73-.92a61.6 61.6 0 0 0-9.5 2.35l-2.16.63-4-4.24a1.25 1.25 0 0 0 .88-1.53l-.37-1.38a1.25 1.25 0 0 0-.58-.76 1.23 1.23 0 0 0-1-.13l-2.06.55-.57-.61a1.25 1.25 0 0 0 .61-.53 1.23 1.23 0 0 0 .13-1l-.37-1.39a1.24 1.24 0 0 0-.59-.76 1.2 1.2 0 0 0-.94-.12l-1.89.5-4.06-4.31a1.4 1.4 0 0 0-.32-.25 1.51 1.51 0 0 0-1.12-.16l-2.73.73a1.19 1.19 0 0 0-.72.53 1.15 1.15 0 0 0 0 1.2l7 11.75a2.18 2.18 0 0 1 .14.33l1.24 4.65c-4.43 1.3-8.52 2.69-11.84 4l-.9.37-7.47-5.29-.13-.09a1.72 1.72 0 0 0-1.23-.16l-1.27.34a1.15 1.15 0 0 0-.72.53 1.13 1.13 0 0 0 .06 1.24l4.08 5.93a1.55 1.55 0 0 1 .12.28l.2.73a3.91 3.91 0 0 0-.85.95 1.66 1.66 0 0 0-.21 1.26 1.64 1.64 0 0 0 .81 1 4 4 0 0 0 1.2.4l.2.75a1.31 1.31 0 0 1 0 .3l-.58 7.15a1.15 1.15 0 0 0 .55 1.11 1.16 1.16 0 0 0 .88.11l1.31-.35a1.69 1.69 0 0 0 1-.76l.05-.1 3.92-8.44 1-.12c3.56-.5 7.79-1.33 12.28-2.4l1.24 4.65a2.06 2.06 0 0 1 0 .36l-.21 13.65a1.16 1.16 0 0 0 .58 1.05 1.15 1.15 0 0 0 .89.11l2.75-.73a1.51 1.51 0 0 0 .88-.7 1.49 1.49 0 0 0 .15-.37l1.38-5.68 1.89-.5a1.25 1.25 0 0 0 .89-1.53l-.37-1.39a1.26 1.26 0 0 0-1.38-.92l.2-.81 2.06-.55a1.27 1.27 0 0 0 .76-.59 1.23 1.23 0 0 0 .13-.94l-.36-1.38a1.27 1.27 0 0 0-.59-.76 1.23 1.23 0 0 0-.95-.13l1.35-5.67 2.21-.53a61.22 61.22 0 0 0 9.37-2.68zm0 0" transform="translate(-12.15 -204.65)"/><path class="cls-3" d="M171.28 252.53s.37-.6 1.14-1.64" transform="translate(-12.15 -204.65)"/><path class="cls-4" d="M174.9 247.8c9-10.48 35.69-34.29 88.21-28.8 66.89 7 64.48 71 44.18 66s-11.44-49 40.63-41 54.36 34 93.71 21 51.17-54.95 29.26-59.47S441.68 239 483.34 241c31.1 1.49 50.39.2 58.17-.55" transform="translate(-12.15 -204.65)"/><path class="cls-3" d="M543.49 240.24c1.32-.15 2-.24 2-.24" transform="translate(-12.15 -204.65)"/></svg>