<svg xmlns="http://www.w3.org/2000/svg" viewBox="0 0 29.732 29.732"><path d="M23.896 29.732c-1.237 0-2.732-.31-4.374-.93-3.603-1.358-7.521-4.042-11.036-7.556-3.514-3.515-6.198-7.435-7.557-11.037C-.306 6.934-.309 4.246.92 3.016c.177-.178.358-.368.544-.563C2.587 1.272 3.868-.08 5.538.004c1.16.048 2.283.768 3.434 2.198 3.396 4.226 1.866 5.732.094 7.478l-.313.31c-.29.29-.84 1.634 4.26 6.731 1.665 1.664 3.084 2.882 4.217 3.619.713.465 1.99 1.165 2.513.642l.316-.318c1.744-1.769 3.25-3.296 7.474.099 1.431 1.15 2.15 2.272 2.198 3.433.069 1.681-1.27 2.953-2.452 4.075-.195.186-.385.366-.562.542-.614.613-1.59.919-2.821.919zM5.419 1.002c-1.195 0-2.275 1.136-3.23 2.141-.192.201-.379.397-.562.58-.915.915-.822 3.324.238 6.134 1.31 3.472 3.913 7.266 7.329 10.683 3.416 3.415 7.209 6.018 10.682 7.327 2.81 1.062 5.218 1.152 6.133.237.183-.183.379-.369.581-.56 1.027-.976 2.192-2.082 2.141-3.309-.035-.843-.649-1.75-1.825-2.695-3.519-2.828-4.503-1.832-6.135-.176l-.321.323c-.779.779-2.045.607-3.766-.51-1.191-.775-2.665-2.037-4.379-3.751-4.232-4.23-5.585-6.818-4.26-8.146l.319-.315c1.658-1.632 2.659-2.617-.171-6.138-.946-1.175-1.853-1.789-2.696-1.824l-.078-.001zM19.552 10.68a.5.5 0 0 1-.354-.853l9.68-9.68a.5.5 0 0 1 .707.707l-9.68 9.68a.494.494 0 0 1-.353.146z"  fill="#ffffff"/><path d="M29.232 8.403a.5.5 0 0 1-.5-.5V1.001H21.83a.5.5 0 0 1 0-1h7.401a.5.5 0 0 1 .5.5v7.402a.498.498 0 0 1-.499.5z"  fill="#ffffff"/></svg>