<svg xmlns="http://www.w3.org/2000/svg" viewBox="0 0 34.166 34.166"><path d="M17.083 19.109c-3.131 0-5.679-2.548-5.679-5.68s2.547-5.68 5.679-5.68 5.679 2.548 5.679 5.68-2.548 5.68-5.679 5.68zm0-10.359c-2.58 0-4.679 2.099-4.679 4.68s2.099 4.68 4.679 4.68 4.679-2.099 4.679-4.68-2.099-4.68-4.679-4.68z" fill="#ff2233"/><path d="M17.067 34.166a.5.5 0 0 1-.442-.266l-4.175-7.877a13.44 13.44 0 0 1-8.794-12.594C3.656 6.024 9.679 0 17.083 0S30.51 6.024 30.51 13.43c0 5.638-3.542 10.68-8.833 12.608L17.509 33.9a.5.5 0 0 1-.442.266zM17.083 1C10.231 1 4.656 6.576 4.656 13.43c0 5.261 3.34 9.97 8.311 11.717a.5.5 0 0 1 .276.237l3.824 7.215 3.817-7.201a.502.502 0 0 1 .278-.238 12.434 12.434 0 0 0 8.348-11.73C29.51 6.576 23.935 1 17.083 1z" fill="#ff2233"/></svg>