<svg xmlns="http://www.w3.org/2000/svg" width="590.066" height="590.067" viewBox="0 0 590.066 590.067"><path d="M262.954 339.316l56.552-159.33-46.149-3.778-62.089 214.516 84.093-43.845-13.139 85.222h-27.224l31.164 70.667 49.811-70.667H302.59l43.155-142.338z" fill="#ffffff"/><path d="M583.039 505.265L323.646 54.154c-7.717-13.368-17.776-20.751-28.304-20.751-10.729 0-20.99 7.564-28.908 21.286L7.032 505.007c-7.908 13.692-9.208 27.138-3.586 36.873 5.508 9.533 16.935 14.783 32.207 14.783h518.766c15.31 0 26.756-5.23 32.245-14.717 5.573-9.667 4.254-23.026-3.625-36.681zm-67.391 11.714H74.281c-15.591 0-21.979-11.053-14.197-24.562l220.958-383.579c7.781-13.509 20.507-13.505 28.278.011l220.546 383.556c7.771 13.516 1.374 24.574-14.218 24.574z" fill="#ffffff"/></svg>