<svg xmlns="http://www.w3.org/2000/svg" viewBox="0 0 512 512"><path d="M452 172.004c-2.025 0-4.027.104-6.002.301V90.002C445.998 40.375 405.623 0 355.996 0h-200c-49.625 0-89.998 40.375-89.998 90.002v82.303a60.41 60.41 0 0 0-6-.301C26.916 172.004 0 198.918 0 232.002c0 20.641 10.41 39.58 27.848 50.668l1.017.645c12.012 7.635 16.961 10.897 18.875 15.043 2.299 4.986 2.287 14.717 2.264 32.381L50 442c0 16.539 13.457 29.994 29.998 29.998v10.004c0 16.541 13.457 29.998 29.998 29.998 16.543 0 30.002-13.457 30.002-29.998v-10.004H372v10.004C372 498.543 385.459 512 402.002 512s30-13.457 30-29.998v-10.004c16.541-.004 29.994-13.459 29.994-29.998v-59.758c.002-.082.004-.162.004-.244l-.006-51.26c-.023-17.664-.035-27.395 2.264-32.379 1.914-4.147 6.865-7.41 18.877-15.043l1.018-.648C501.59 271.582 512 252.641 512 232.002c0-33.084-26.916-59.998-60-59.998zM85.998 90.002c0-38.6 31.4-70.002 69.998-70.002h200c38.6 0 70.002 31.402 70.002 70.002v87.936c-20.098 9.711-33.996 30.316-33.996 54.158v24.285a507.142 507.142 0 0 0-136.004-18.58c-46.027 0-91.711 6.26-136.002 18.58v-24.18c.002-.066.002-.133.002-.199 0-23.775-13.9-44.363-34-54.068V90.002zm306.004 187.16V322c0 5.514-4.486 10-10 10H129.998c-5.516 0-10.002-4.486-10.002-10v-44.836a487.166 487.166 0 0 1 136.002-19.363c46.074 0 91.789 6.52 136.004 19.361zm-272.004 204.84c0 5.514-4.486 9.998-10.002 9.998-5.514 0-9.998-4.484-9.998-9.998v-10.004h20v10.004zm292.004 0c0 5.514-4.486 9.998-10 9.998-5.516 0-10.002-4.484-10.002-9.998v-10.004h20.002v10.004zm61.42-216.211l-1.014.645c-14.092 8.955-21.855 13.889-26.311 23.545-4.145 8.984-4.131 19.611-4.104 40.783l.006 50.99c-.002.08-.004.162-.004.244V442c0 5.514-4.486 9.998-10 9.998H80.004C74.488 451.998 70 447.514 70 442l-.002-60.002.006-51.234c.027-21.172.041-31.799-4.104-40.783-4.455-9.656-12.217-14.59-26.309-23.545l-1.014-.645C26.945 258.395 20 245.764 20 232.002c0-22.055 17.943-39.998 39.998-39.998 22.023 0 39.945 17.889 40 39.896l-.002.195V322c0 16.541 13.459 30 30.002 30h252.004c16.541 0 30-13.459 30-30v-52.242-37.756c0-22.055 17.943-39.998 39.998-39.998s40 17.943 40 39.998c0 13.762-6.945 26.393-18.578 33.789z" fill="#ffffff"/><path d="M285.914 412h-.475c-5.522 0-10 4.477-10 10 0 5.522 4.478 10 10 10h.475c5.523 0 10-4.478 10-10 0-5.523-4.476-10-10-10zM382.002 412H315c-5.523 0-10 4.477-10 10 0 5.522 4.477 10 10 10h67.002c5.521 0 10-4.478 10-10 0-5.523-4.479-10-10-10zM223 40h-67.004c-5.521 0-10 4.479-10 10 0 5.523 4.479 10 10 10H223c5.521 0 10-4.477 10-10 0-5.521-4.479-10-10-10zM252.559 40h-.475c-5.521 0-10 4.479-10 10 0 5.523 4.479 10 10 10h.475c5.522 0 10-4.477 10-10 0-5.521-4.478-10-10-10z" fill="#ffffff"/></svg>