<svg xmlns="http://www.w3.org/2000/svg" viewBox="0 0 512 512"><path d="M409.096 33.317l-11.914-14.892C387.815 6.715 373.842 0 358.847 0h-256.83c-5.438 0-9.846 4.408-9.846 9.846v68.923c0 5.438 4.408 9.846 9.846 9.846h37.787l36.236 12.078c-5.022 21.86-13.867 42.398-26.37 61.154l-6.615 9.922a9.844 9.844 0 0 0 8.192 15.308h39.385a9.842 9.842 0 0 0 8.178-4.364l6.336-9.451a204.787 204.787 0 0 0 19.513-36.695l5.357 5.357v32.982l-6.826 13.653a152.837 152.837 0 0 1-28.682 39.794c-27.897 27.897-43.261 64.99-43.261 104.442v149.667c0 16.287 13.251 29.538 29.538 29.538h177.231c16.287 0 29.538-13.251 29.538-29.538V140.171L414.67 85.94c8.535-17.066 6.346-37.722-5.574-52.623zm-277.54 35.606h-19.692V19.692h19.692v49.231zm57.234 93.374l-3.411 5.088h-15.852c11.677-18.74 20.154-39.005 25.283-60.434l.351.117 14.255 14.256a185.186 185.186 0 0 1-20.626 40.973zm179.074 44.472h-29.539c-5.438 0-9.846 4.408-9.846 9.846s4.408 9.846 9.846 9.846h29.539v256c0 5.429-4.417 9.846-9.846 9.846H180.786c-5.429 0-9.846-4.417-9.846-9.846v-9.846h49.231c5.438 0 9.846-4.408 9.846-9.846s-4.408-9.846-9.846-9.846H170.94V332.795c0-34.194 13.315-66.339 37.494-90.518a172.497 172.497 0 0 0 32.37-44.912l5.145-10.288h121.915v19.692zM249.71 167.385v-19.692h118.154v19.692H249.71zm147.347-90.251L371.625 128H243.942l-16.276-16.277-.002-.002-20.223-20.223a9.849 9.849 0 0 0-3.849-2.379l-13.024-4.341-39.321-13.107V19.692h207.598c8.981 0 17.348 4.021 22.958 11.035l11.914 14.892c7.141 8.924 8.451 21.293 3.34 31.515z" fill="#ffffff"/><path d="M318.436 214.695a9.252 9.252 0 0 0-.561-1.841 9.631 9.631 0 0 0-.906-1.703 9.38 9.38 0 0 0-1.221-1.497 9.435 9.435 0 0 0-1.497-1.221 9.768 9.768 0 0 0-1.703-.906 9.252 9.252 0 0 0-1.841-.561 9.696 9.696 0 0 0-3.84 0c-.63.118-1.25.315-1.841.561a9.631 9.631 0 0 0-1.703.906 9.38 9.38 0 0 0-1.497 1.221 9.435 9.435 0 0 0-1.221 1.497 9.768 9.768 0 0 0-.906 1.703 9.252 9.252 0 0 0-.561 1.841 9.698 9.698 0 0 0-.197 1.92c0 .64.069 1.29.197 1.92.118.63.315 1.25.561 1.841.246.601.551 1.172.906 1.703a9.38 9.38 0 0 0 1.221 1.497 9.38 9.38 0 0 0 1.497 1.221c.532.354 1.103.66 1.703.906a9.252 9.252 0 0 0 1.841.561c.63.128 1.28.197 1.92.197.64 0 1.29-.069 1.92-.197a9.252 9.252 0 0 0 1.841-.561 9.631 9.631 0 0 0 1.703-.906 9.38 9.38 0 0 0 1.497-1.221 9.435 9.435 0 0 0 1.221-1.497c.354-.532.66-1.103.906-1.703a9.252 9.252 0 0 0 .561-1.841c.128-.63.197-1.28.197-1.92 0-.64-.069-1.289-.197-1.92zM259.369 460.849a9.99 9.99 0 0 0-.571-1.841 9.631 9.631 0 0 0-.906-1.703 9.38 9.38 0 0 0-1.221-1.497 9.435 9.435 0 0 0-1.497-1.221 9.768 9.768 0 0 0-1.703-.906 9.252 9.252 0 0 0-1.841-.561 9.696 9.696 0 0 0-3.84 0c-.63.118-1.25.315-1.841.561a9.631 9.631 0 0 0-1.703.906 9.38 9.38 0 0 0-1.497 1.221 9.435 9.435 0 0 0-1.221 1.497 9.768 9.768 0 0 0-.906 1.703 9.252 9.252 0 0 0-.561 1.841c-.128.63-.197 1.28-.197 1.92s.069 1.29.197 1.92c.118.63.315 1.25.561 1.841.246.601.551 1.172.906 1.703.354.542.768 1.044 1.221 1.497s.955.866 1.497 1.221c.532.354 1.103.66 1.703.906a9.99 9.99 0 0 0 1.841.571c.63.128 1.28.187 1.92.187s1.29-.059 1.92-.187a9.99 9.99 0 0 0 1.841-.571 9.631 9.631 0 0 0 1.703-.906 9.38 9.38 0 0 0 1.497-1.221 9.435 9.435 0 0 0 1.221-1.497c.354-.532.66-1.103.906-1.703a9.99 9.99 0 0 0 .571-1.841c.128-.63.187-1.28.187-1.92s-.059-1.29-.187-1.92z" fill="#ffffff"/></svg>