<svg xmlns="http://www.w3.org/2000/svg" viewBox="0 0 512.009 512.009"><path d="M213.33 307.209c.546 0 1.118-.051 1.681-.171l85.333-17.067c4.617-.922 7.62-5.419 6.699-10.035a8.53 8.53 0 0 0-10.044-6.699l-32.461 6.494v-32.256a8.53 8.53 0 0 0-8.533-8.533 8.53 8.53 0 0 0-8.533 8.533v35.669l-35.806 7.168c-4.617.922-7.62 5.419-6.699 10.035.811 4.055 4.378 6.862 8.363 6.862zM213.33 375.476c.546 0 1.118-.051 1.681-.171l85.333-17.067c4.617-.922 7.62-5.419 6.699-10.035-.93-4.617-5.376-7.637-10.044-6.699l-85.333 17.067c-4.617.93-7.62 5.427-6.699 10.044.811 4.053 4.378 6.861 8.363 6.861zM256.006 221.876c28.237 0 51.2-22.963 51.2-51.2 0-28.237-22.963-51.2-51.2-51.2s-51.2 22.963-51.2 51.2c0 28.236 22.963 51.2 51.2 51.2zm0-85.334c18.825 0 34.133 15.309 34.133 34.133 0 18.825-15.309 34.133-34.133 34.133s-34.133-15.309-34.133-34.133c-.001-18.824 15.308-34.133 34.133-34.133zM242.105 67.67l25.583-10.24-11.238 33.749c-1.493 4.471.922 9.301 5.393 10.795a8.517 8.517 0 0 0 2.697.435c3.576 0 6.904-2.261 8.09-5.837l17.067-51.2a8.513 8.513 0 0 0-2.236-8.909 8.569 8.569 0 0 0-9.02-1.715l-25.583 10.24 11.238-33.749c1.493-4.471-.922-9.301-5.393-10.795a8.504 8.504 0 0 0-10.786 5.402l-17.067 51.2a8.493 8.493 0 0 0 2.236 8.9 8.542 8.542 0 0 0 9.019 1.724zM213.33 341.342c.546 0 1.118-.051 1.681-.171l85.333-17.067c4.617-.922 7.62-5.419 6.699-10.035-.93-4.617-5.376-7.603-10.044-6.699l-85.333 17.067c-4.617.93-7.62 5.427-6.699 10.044.811 4.054 4.378 6.861 8.363 6.861zM441.682 20.054c-3.063-3.576-8.448-3.977-12.023-.922l-59.733 51.2a8.52 8.52 0 0 0-2.458 9.438 8.534 8.534 0 0 0 8.004 5.572h18.338l-66.338 53.069a8.53 8.53 0 0 0-1.331 11.989 8.5 8.5 0 0 0 6.673 3.208 8.53 8.53 0 0 0 5.325-1.869l85.333-68.267a8.532 8.532 0 0 0 2.714-9.489 8.516 8.516 0 0 0-8.047-5.709h-19.601l42.214-36.19a8.52 8.52 0 0 0 .93-12.03zM349.872 460.809h-85.333a8.53 8.53 0 0 0-8.533-8.533 8.53 8.53 0 0 0-8.533 8.533H162.14c-14.362 0-25.6 11.247-25.6 25.6v17.067c0 4.71 3.814 8.533 8.533 8.533s8.533-3.823 8.533-8.533v-17.067c0-4.139 2.995-8.533 8.533-8.533h187.733c5.103 0 8.533 3.43 8.533 8.533v17.067c0 4.71 3.814 8.533 8.533 8.533s8.533-3.823 8.533-8.533v-17.067c.001-14.592-11.007-25.6-25.599-25.6zM213.33 409.609c.546 0 1.118-.051 1.681-.171l85.333-17.067c4.617-.922 7.62-5.419 6.699-10.035a8.518 8.518 0 0 0-10.044-6.699l-85.333 17.067c-4.617.93-7.62 5.427-6.699 10.044.811 4.054 4.378 6.861 8.363 6.861zM213.33 443.742c.546 0 1.118-.051 1.681-.171l85.333-17.067c4.617-.922 7.62-5.419 6.699-10.035a8.518 8.518 0 0 0-10.044-6.699l-85.333 17.067c-4.617.93-7.62 5.427-6.699 10.044.811 4.054 4.378 6.861 8.363 6.861zM136.539 65.118l53.359 60.032c3.123 3.516 8.516 3.814 12.041.708 3.524-3.14 3.84-8.533.708-12.058L134.38 37c-2.347-2.637-6.084-3.55-9.412-2.304a8.55 8.55 0 0 0-5.495 7.979v64.734L82.839 70.776a8.523 8.523 0 0 0-12.066 0 8.525 8.525 0 0 0 0 12.066l51.2 51.2a8.535 8.535 0 0 0 9.301 1.851 8.535 8.535 0 0 0 5.265-7.885v-62.89z" fill="#ffffff"/></svg>